<svg x="0px" y="0px" id="svg_map" viewBox="60 100 1050 800" max-height="800px" xmlns="http://www.w3.org/2000/svg" xmlns:xlink="http://www.w3.org/1999/xlink" xml:space="preserve" version="1.1">

<style type="text/css">
	.style0{
		stroke-linejoin:	round;
		fill-rule:	evenodd;
		stroke:	#090909;
		stroke-linecap:	round;
		stroke-miterlimit:	3;
		clip-rule:	evenodd;
		stroke-width:	0.7;
		fill:	#A08CB8;
	}
	.style1{
		stroke-linejoin:	round;
		fill-rule:	evenodd;
		stroke:	#090909;
		stroke-linecap:	round;
		stroke-miterlimit:	3;
		clip-rule:	evenodd;
		stroke-width:	0.7;
		fill:	none;
	}
	
	.style4 {
		font-size:1em;
		font-family:Arial, Futura, Helvetica;
		font-weight:700;
		color:white;
	}
	.style2{
		fill:	none;
		clip-rule:	evenodd;
		fill-rule:	evenodd;
	}
	.active {
		fill-opacity:0.5;
		transition: .25s linear;
		-moz-transition: .25s linear; /*for firefox */
		-webkit-transition:.25s linear; /*for webkit based browsers*/
		
	}
	
	.active:hover {
		fill-opacity:1;
	}
</style>

<script type="text/javascript">

		function zoomTarget1() {
			var svgDocument = document.getElementsByTagName('svg')[0];
			var cx = 150;
			var cy = 610;
			var width = 525;
			svgDocument.setAttribute("viewBox", cx+" "+cy+" "+width+" 300");
			showReturnButton(cx,cy,width); 	
		}

		function zoomTarget2() {
			var svgDocument = document.getElementsByTagName('svg')[0];
			var cx = 630;
			var cy = 90;
			var width = 450;
			svgDocument.setAttribute("viewBox", cx+" "+cy+" "+width+" 350");
			
			showReturnButton(cx,cy, width);
		}
		
		
		
		function showReturnButton(cx, cy, width) {
			var svgDocument = document.getElementsByTagName('svg')[0];
			var exitButton = svgDocument.getElementById('exitButton');
			exitButton.setAttribute("display","block");
			//if (cx != 150) {
				exitButton.setAttribute("transform","translate("+(cx+width-50)+","+cy+")");
			/*} else {
				exitButton.setAttribute("transform","translate("+(cx+width-75)+","+(cy+15)+")");
			}*/
			exitButton.addEventListener("click",
				function() {
					svgDocument.setAttribute("viewBox", "60 100 1050 800");
					exitButton.setAttribute("display","none");
				}, 
			false);
			
		}
</script>

	<g id="exitButton" display="none" style="cursor:pointer;">

	
		<circle cx="24.563" cy="25.188" r="21.875" fill="#FFFFFF"/>
		<path id="path5" fill="#BE1E2D" d="M24.986,49.887C11.209,49.887,0,38.678,0,24.899C0,11.122,11.209-0.087,24.986-0.087
			c13.778,0,24.987,11.209,24.987,24.987C49.975,38.678,38.766,49.887,24.986,49.887z M24.986,5.053
			C14.043,5.053,5.14,13.957,5.14,24.9s8.903,19.847,19.846,19.847c10.944,0,19.847-8.903,19.847-19.847
			C44.833,13.957,35.932,5.053,24.986,5.053z"/>
		<path id="path9" fill="#BE1E2D" d="M36.301,17.221c-0.972-1.428-2.208-2.664-3.635-3.635l-7.68,7.679l-7.678-7.679
			c-1.428,0.972-2.663,2.207-3.635,3.635l7.679,7.678l-7.679,7.679c0.972,1.428,2.207,2.663,3.635,3.636l7.678-7.679l7.68,7.679
			c1.427-0.973,2.663-2.208,3.635-3.636l-7.678-7.679L36.301,17.221z"/>
	</g>

			<g onclick="zoomTarget1()" id="Ikes" class="room active"> <!--onmouseover="this.setHTML" onmousedown="this.setHash" onmouseout="this.hashTag"-->
			
				<path d=" M518.7 659.35L351.75 677.45l2.45 22.5l-34.7 3.85l1.85 16.9c0 0 1.3 4.051-4.446 4.683S285.6 728.9 285.6 728.85l7.3 66.1 l-10.9 1.2l-8.65-79.101l39.85-4.3l-0.95-8.25l-2.45 0.35l-0.15-1.75l3.95-0.449l-2.3-21.551l-44.8 4.851l1.15 10.399l-20.9 2.2 l1.25 11.25l1.05-0.149l0.25 1.7l9.7-0.351c0 0 0.6 5.263-3.621 10.32c-3.545 4.297-7.529 3.63-7.529 3.63l0.85 3.9l4.1-0.5 l1.1 5l5.4 0.35l3.5 31.3l-10.45 1.25l2.65 24.9l8.1-0.851l0.2 1.851l-18.6 1.95l2.4 22.649l-11.15 1.25l6.8 62.95l63.05-6.75 l-4.5-42.2l24.7-2.7l1.45 13.95l8.75-0.95l0.95 9.95l32.75-3.5l-1-10l34.2-3.649l0.65 9.899l32.75-3.5l-0.75-9.95l34.15-3.8 l1.399 10l32-3.55l-0.7-9.9l34.2-3.75l0.65 9.95l33.399-3.6l-3.05-24.7l9.3-0.8L572.7 760.6l-4.65-41.8l-4.399-41.5l-42.45 4.7 L518.7 659.35z" class="style0"/>
				<text style="fill-opacity:1;" transform="matrix(1 0 0 1 401.5 744.9287)" class="roomText" font-family="Arial, Helvetica, sans-serif" font-size="3em">Ike's</text>
				
			</g>
			
			<g onclick="zoomTarget2()" id="FrontDesk" class="room active">
				<path d=" M747.95 308.8l-1.65-1.4l-39 45.9l23.9 20.25l3.25-3.95c0 0 23.05-6.7 
				42.3-24.9L756.833 328l5.867-6.7l-5.2-4.133 c0 0-7.667 8.667-18.167 1.667L747.95 308.8z" 
				class="style0"/>
				<text style="fill-opacity:1;" transform="matrix(1 0 0 1 725.5371 340.5503)"><tspan x="0" y="0" class="style4">Front </tspan><tspan x="0" y="18" class="style4">Desk</tspan></text>
			</g>
		
			<g onclick="zoomTarget2()" id="Lounge" class="room active">
				<polygon points="922.1,253.9 917.9,250.2 875,300.8 880.7,371.9 947.9,429 
				1022.9,340.6 1022.3,340.1 1036,324.1 952,252.9 945.6,260.2 947,262.5 944.2,265.7 936.4,259 
				929.6,266.9 926.5,264.2 927.4,261.8 920,255.6" class="style0"/>
				<text style="fill-opacity:1;" transform="matrix(1 0 0 1 895 336.9102)" class="roomText" font-family="Arial, Helvetica, sans-serif" font-size="2em">Lounge</text>
			</g>
			
			<g onclick="zoomTarget2()" id="StudyRoom" class="room active">
				<polygon points="886.6,227.2 842,279.8 792.4,283.8 788.5,237.1 739.5,195.5 
				800.1,124.1 884.1,195.3 877.5,203.2 875.5,201.8 872.5,205.2 880.5,211.7 874,219.8 876.8,222.5 
				878.6,220.4" class="style0"/>
				<text style="fill-opacity:1;" transform="matrix(1 0 0 1 756.9492 201.0459)" class="roomText" font-family="Arial, Helvetica, sans-serif" font-size="1.5em">Study Room</text>
			</g>
	
		<g id="first_floor_outline" display="block">	
			<path d=" 
				M974.25 266.5l-0.55-0.45l-0.45 0.6l-0.55 0.6l0.45 0.5l0.55-0.6L974.25 266.5z 
				M982.55 273.5l-1.05 1.25l-1.6 1.85l6.399 5.4 l1.55-1.8l1.051-1.25l0.649-0.8l-6.35-5.45L982.55 273.5L982 273l-0.5 0.65l-0.55 0.6l0.55 0.5 
				M986.3 282l17.101 14.55l1.6-1.8 l-0.55-0.5l-7.75-6.6l-0.5-0.4l-7.8-6.6l-0.551-0.45 
				M996.2 287.25l0.5-0.6l-7.75-6.55l-0.55 0.6 M996.7 286.65l0.5-0.65 l-7.75-6.55l-0.5 0.7 
				M988.9 278.95l0.55 0.5 M997.2 286l0.5 0.45l7.75 6.55l0.6 0.5l0.601-0.8l-17.101-14.55 
				M996.7 287.6 l0.5-0.6l0.5-0.6 M1006.05 293.5l-1.05 1.2 M1005.45 293l-0.45 0.65l-0.55 0.6 
				M1005 293.65l-7.8-6.6 M980.95 274.25l-7.8-6.5 M982 273l-7.75-6.5 M981.5 273.65l-7.8-6.5 
				M1020.75 305.95l0.45 0.4l7.75 6.55l0.6 0.5l0.65-0.75l-17.15-14.55l-0.649 0.8 l0.5 0.45L1020.75 305.95l-0.55 0.6l-0.5 0.55l0.5 0.5l0.5-0.6l0.5-0.65 
				M1029.55 313.4l-1.05 1.2l-1.55 1.9l9 7.65l-0.55 0.6 l1.05 0.9l-0.55 0.6l2 1.75l0.55-0.65l0.75 0.7l3.8-4.5l-12.8-10.85 
				M1028.95 312.9l-0.55 0.65l-0.5 0.6l0.6 0.5 M1020.2 307.6 l7.7 6.5 M1028.4 313.55l-7.7-6.55 
				M1035.4 324.7l-9.101 10.75l1.05 0.85l0.5-0.5l1.95 1.75l0.8 0.6l8.051-9.45 c-0.167-0.233-0.417-0.483-0.75-0.75 
				M1026.3 335.45l-4 4.65l0.601 0.5l-63.65 75.05l1.9 1.6l63.6-75.05l48.85 41.45l-6.75 7.9 l1.9 1.55l1.25 1.05l0.75 0.65l10-11.75l-51.3-43.5l0.649-0.85l-0.8-0.7l0.5-0.45 
				M1039.2 328l-0.55 0.7 c2.232 2.1 3.5 4.7 3.8 7.75c0.232 3.533-0.768 6.6-3 9.2l-8.801-7.5l-0.5 0.6 M1003.4 296.55l6.399 5.45l1.55-1.9 l1.051-1.25 M1011.35 300.1l0.5 0.45l0.551-0.6l0.5-0.65 M1009.8 302l17.15 14.5 M1011.85 300.55l7.851 6.5 M1012.4 299.9 l7.8 6.6 
				M1066.85 391.55l-14.449 17l1.899 1.6l0.4-0.5l6.6-7.75l0.45-0.55l6.6-7.75l0.4-0.5 
				M1061.75 401.35l0.6 0.55l6.601-7.75 l-0.601-0.55 M1070 394.15l-0.4 0.45l-6.6 7.85l-0.5 0.5l-6.55 7.75l-0.4 0.5l0.75 0.65l14.45-17.05 
				M1069.6 394.6l-0.649-0.45 M1013.05 298.1l-6.399-5.4 
				M820 135.65l0.55 0.4l7.75 6.6l0.55 0.5l0.65-0.8l-17.15-14.55l-0.649 0.8l0.55 0.5L820 135.7 l-0.45 0.65l-0.55 0.6l0.5 0.4l0.55-0.6l0.5-0.65 
				M811.7 128.6l-1 1.2l0.55 0.55l0.55-0.65l0.45-0.6 M828.85 143.15l-1.05 1.2 l-1.6 1.85l6.399 5.4l1.601-1.85l1-1.2l0.649-0.8l-6.35-5.45 
				M828.3 142.65l-0.5 0.65l-0.55 0.6l0.55 0.5 M827.8 143.3l-7.75-6.6 M811.25 130.35l7.75 6.5 M819.55 136.3l-7.75-6.6 M819.5 137.3l7.75 6.6 
				M843 156.2l-0.55 0.55l0.55 0.5l0.55-0.6l0.45-0.6 l-0.55-0.45L843 156.2z M834.2 149.8l0.55 0.45l0.5-0.6l0.5-0.65l-0.55-0.4 
				M826.2 146.25L809.1 131.7l-9-7.6l-0.55 0.6l-9.1 10.7 l-6.05 7.25l-14.601 17.1l-21 24.85l-8.149 9.55l-1.101 1.35l49 41.55l3.851 46.75l5.1-0.3l25.2-2.15l19.35-1.55l44.601-52.55 l-0.5-0.35l-0.45-0.4l-5.9-5l-0.45-0.4l-0.699-0.65L877 222.3l-3.15-2.65l6.7-7.95l-7.899-6.65l2.8-3.3l1.8 1.6l0.6-0.7l0.5-0.55 l5-5.85l0.4-0.5l0.35-0.45l-10.85-9.2l-17.15-14.5l-6.399-5.4L832.6 151.7 
				M835.25 149.65l7.75 6.5 M843.45 155.6l-7.7-6.6 
				M834.75 150.25l7.7 6.5 M856.1 171.6l1.551-1.85l1.05-1.25l0.649-0.75l-6.399-5.4l-0.601 0.75l-1.05 1.2l-1.6 1.9 
				M852.35 163.1 l-0.6-0.55l-0.5 0.65l-0.55 0.55l0.6 0.6 M857.65 169.75l0.6 0.45l0.55-0.65l0.5-0.6l-0.6-0.45 
				M866.5 177.2l0.5-0.6l0.5-0.65 l-0.45-0.45l-0.55 0.65l-0.55 0.6L866.5 177.2z M875.25 182.55l-0.5 0.6l-0.55 0.6l0.6 0.45l1.05-1.2L875.25 182.55z 
				M875.85 183 l0.65-0.8l-17.15-14.45 M884.95 196.7l-0.45 0.5l0.9 0.75l0.35-0.5L884.95 196.7z 
				M883.75 195.75l1.2 0.9 M883.95 196.75l-5 5.9 l0.55 0.4l5-5.85L883.95 196.75z M883.35 196.25l0.601 0.5 
				M885.75 197.45l3.65-4.25l-12.9-11 M873.25 186.1l1.55-1.9 M865.95 176.75l-7.7-6.55 M858.8 169.55l7.7 6.6 
				M859.3 168.95l7.75 6.5 M867 176.6l7.75 6.5 M874.2 183.75l-7.7-6.55 M867.5 175.95l7.75 6.6 
				M835.85 147.8l17.101 14.6 M844 156.05l7.75 6.5 M843.55 156.65l7.7 6.5 M843 157.25l7.7 6.5 
				M702.2 131.75l-1.2-1.05l-0.5 0.6l0.65 0.5l0.55 0.55L702.2 131.75l1.899 1.55l6.7-7.9l5.7 4.85l1.6-1.9l1-1.15l0.7-0.85 l-9.649-8.1L700.2 130l0.8 0.7 
				M695.15 140.05l-0.601-0.55L693.9 139l-0.351 0.5l0.55 0.55l0.601 0.55L695.15 140.05z 
				M694.55 139.5l6.601-7.7 M700.5 131.3l-6.6 7.7 M701.7 132.35l-6.55 7.7 
				M718.1 128.35l0.551 0.55l0.5-0.55l0.5-0.65l-0.551-0.5 M727.4 135.3l0.5-0.6l-0.45-0.5l-0.601 0.7l-0.449 0.55l0.5 0.4L727.4 135.3z
	M719.65 127.7l7.8 6.5 M726.85 134.9l-7.699-6.55 M726.4 135.45l-7.75-6.55
	M740.65 194.15l-2.101-1.8l-1.1 1.3L688.25 152l1.35-1.6l-1.899-1.55l-1.2-1.05l-0.8-0.65l-8.2 9.6 l0.85 0.7l1.2 1.05l1.851 1.55l5.05-5.85l49.1 41.65l-26.1 30.8l-0.65-0.55l-0.7 0.85l-0.55-0.5l-1.7 2.05l0.551 0.45l-0.9 1 l3.35 2.85l0.9-1l0.6 0.5l1.7-2.05l-0.55-0.5l0.65-0.8l-0.601-0.45l26.15-30.8l29.899 25.35L741.45 253.8L722.8 238l-0.7 0.8 l-0.399-0.45l-1.7 2.05l0.4 0.4l-0.9 1L743 261.8l0.9-1l0.6 0.5l1.75-2.05l-0.6-0.5l0.649-0.8l-2.7-2.3l26.15-30.8l16.15 13.7 l2.199 28.2l-2.399 0.2l0.2 1.85l2.449-0.15l0.851 11.15l-4.3 0.25l-7.051 0.7l-4.35 0.3l-5.15-4.4l5.801-6.85l3.3-0.25 l-0.101-1.95l-4.25 0.35l-6.25 7.4L757 267l-0.65 0.8l-0.5-0.45l-1.75 2.05l0.5 0.45l-0.899 1l22.35 18.95l4.15-4.75l2.399 2 l4.801 4.05l2.35 2.05l-4.1 4.8l5.25 4.4l2.75-3.15L792.6 286.6l5.15-0.35l-0.25-2.75
	M687.7 148.85l0.45-0.55l-0.601-0.55 l-0.649-0.5l-0.4 0.6
	M678.35 157.45l-0.399 0.45l0.649 0.55L679.2 159l0.35-0.5
	M672.55 166.75L672 166.2l-0.65-0.55l-0.449 0.6 l0.6 0.55l0.6 0.55L672.55 166.75l6.65-7.75
	M671.35 165.65l6.601-7.75
	M672 166.2l6.6-7.75
	M672.1 167.3l-6.649 7.75l-0.351 0.5 l1.851 1.6l14.45-17.05
	M665.45 175.05l-0.601-0.55l-0.55-0.55l-0.399 0.5l1.199 1.1
	M677.5 156.75l-14.45 17.05l0.851 0.7
	M666.95 177.1l-6.65 7.85l37.8 32.1l0.601 0.55c2.1-2.167 4.733-3.417 7.899-3.75c3.434-0.267 6.5 0.8 9.1 3.05l-7.45 8.8 l0.55 0.5
	M1056.3 411.85l-32.7 38.5L1009.2 467.4L999.15 479.1L918.85 410.95l-0.449 0.6l-1.851 2.15l-0.45 0.55l9.5 8.1 c-2.267 2.667-5.083 4.133-8.449 4.4c-3.434 0.3-6.483-0.667-9.15-2.9c2.6 2.3 4.1 5.2 4.4 8.6 c0.199 3.467-0.817 6.517-3.051 9.15l-9.55-8.1l-0.45 0.55l-1.85 2.1l-0.45 0.55l-7.05 8.3l-0.35 0.5l-7.101 8.3l-0.399 0.6 l-7.051 8.25l-0.399 0.55l-7 8.25l-0.55 0.601l1.899 23.1l1.15 13.9l1.25 15.8l-17.601 20.8L839.3 562.65l-17.8 21.05l-44.9-38.05 l-12.85-10.9L739.1 513.8L726.2 502.95L707.35 486.85l-6.399 7.551l-14.5 17.05l-3.601 4.3l-14.5 17.1l-5.5 6.4l27.7 23.5 l-5.399 6.4l-2.65-2.25l-0.45 0.6l-2.7 3.15l-0.449 0.55l9.55 8.149c-2.267 2.667-5.101 4.15-8.5 4.5 c-3.467 0.2-6.517-0.783-9.15-2.95c2.566 2.3 4 5.1 4.4 8.551c0.2 3.466-0.816 6.517-3.05 9.149l-9.601-8.149l-0.45 0.6 L659.4 594.1l-0.4 0.551l2.6 2.25l-5.399 6.449l-27.75-23.55l-5.45 6.5l-14.45 17l-3.649 4.351l-14.5 17.1l-3.601 4.2L572.3 646 l-6.149 7.25l2.449 23.2l-3.5 0.35l0.15 1.45l0.35 3.15l0.4 3.1v0.6l12.6-1.199c0.434 3.399-0.483 6.466-2.75 9.2 c-2.066 2.658-4.783 4.217-8.149 4.676c3.374-0.351 6.4 0.5 8.9 2.625c2.666 2.2 4.2 5 4.6 8.5l-12.5 1.35l0.1 0.7 l0.801 6.949l-0.051 0.7l2.65-0.2l0.85-0.1l4.5 41l-3.399 0.45l0.05 0.6l0.05 0.65l0.601 6.45l0.199 0.649l12.5-1.45 c0.4 3.434-0.517 6.534-2.75 9.301c-2.1 2.633-4.85 4.199-8.25 4.699c3.334-0.366 6.4 0.5 9.1 2.7 c2.666 2.1 4.2 5 4.6 8.5l-12.55 1.25l0.05 0.8l0.75 6.95l0.051 0.55l2.625-0.175l0.875-0.075l2.1 19.45l-8.35 1 l0.899 8.25l-5.55 0.601l-0.25-1.95l-1.5 0.25l-7.3 0.75l-0.8 0.1l-14.15 1.5l-0.85 0.15l-8.15 0.95h-0.65l0.2 1.899l-5.55 0.6 l-0.9-8.351l-22.3 2.45l0.95 8.3l-5.55 0.601l-0.2-1.9l-0.75 0.1l-7.4 0.75l-0.75 0.101l-0.75 0.05l-14.3 1.6l-0.7 0.1 l-8.149 0.949l-0.7 0.051l0.2 1.949l-5.55 0.601l-0.9-8.351l-22.35 2.301l1 8.449l-5.6 0.5l-0.2-1.899l-0.8 0.149l-8.05 0.8 l-0.8 0.1l-14.15 1.6l-1.55 0.15l-7.45 0.8l-0.65 0.101l0.2 1.949l-5.5 0.551l-1-8.351l-22.3 2.45l1 8.3l-5.55 0.601l-0.25-1.9 l-0.75 0.1l-4.45 0.45l-5.3 0.65c0.4 3.366-0.483 6.434-2.65 9.2c-2.167 2.666-4.983 4.233-8.45 4.699l-1.35-12.55l-1.7 0.2 l-8.05 0.8l-0.75 0.101l0.25 1.899l-5.6 0.551l-0.85-8.351l-8.45 1l-1.5-14.5l-14.7 1.601l4.6 42.1l-37 4.05l-35.05 3.8l-3.95-35 l-3.85-37.1l11.1-1.25l-1.6-15.3L91.4 813.6L72.1 635.75l124.95-13.65L211 620.7l15.25-1.7l13.8-1.55l2.5-0.25L239.9 592.1 l16.2-1.699l14.05-1.551l25-2.699l13.95-1.601l27.8-2.95l13.95-1.6l22.35-2.35l13.85-1.5l18.5-2l35-41.2l2.45-3l2.55-2.851l2.5-3 l2.5-2.899l2.45-2.95l2.5-2.9l2.5-2.949l2.5-3l16.1 13.699L591 388.2l-44.65-37.9l96.25-113.5l17.301-1.3l0.449-0.55l1.801-2.15 l0.449-0.55l-9.55-8.15c2.267-2.633 5.134-4.117 8.601-4.45c3.333-0.267 6.3 0.7 9 2.85c-2.567-2.267-4-5.1-4.301-8.5 c-0.3-3.4 0.7-6.45 3-9.15L678.9 213l0.449-0.45l1.851-2.15l0.45-0.65l-28.601-24.2l10-11.75
	M664.3 173.95l6.601-7.75
	M671.5 166.75l-6.65 7.8
	M689.6 150.4l14.5-17.1
	M685.7 147.15L700.2 130
	M694.7 140.6l-6.55 7.7
	M694.1 140.05l-6.55 7.7
	M693.55 139.5l-6.649 7.8
	M799.55 124.7l-1-0.95L798 124.4l-2-1.7c-0.267-0.233-0.55-0.434-0.85-0.6l-8.051 9.5l0.801 0.7 l2 1.75l-0.45 0.5l1 0.9
	M719.8 126.35L736.9 140.9l3.149 2.7l17.15 14.5l4.3 3.65l4.5-5.25l14.55-17.1l6.101-7.25l0.449-0.55 l-8.8-7.45c2.233-2.633 5.084-4.117 8.55-4.45c3.067-0.267 5.8 0.5 8.3 2.4l0.55-0.7l3.8-4.45l12.85 10.8
	M795.7 121.4 l0.8 0.65l-0.5 0.7
	M786.65 132.15l0.8 0.65l0.45-0.55
	M781.4 141.1l0.699 0.5l0.45-0.55L781.3 140l-0.45 0.6L781.4 141.1z
	M782.55 141.05l1.851 1.6
	M780.55 139.4l0.75 0.6
	M766 156.5l0.8 0.65l0.45-0.55l6.6-7.75l0.4-0.5l6.6-7.75
	M735.1 141.8 l-0.5 0.55l0.601 0.55l1-1.2l-0.55-0.5L735.1 141.85l-7.699-6.55
	M736.2 141.75l0.7-0.85
	M736.8 147.5L753.9 162l1.6-1.85 l-0.5-0.45l-7.8-6.65l-0.5-0.35l-7.7-6.55l-0.6-0.55L736.8 147.5z
	M735.2 142.95l-1.601 1.85l3.2 2.7
	M739 146.15l0.45-0.6 l0.55-0.65l-0.55-0.5l-1.05 1.2
	M740.05 143.6l-0.6 0.8
	M766.8 157.15l1.25 1.05l0.45-0.6l-0.7-0.5l-0.55-0.5
	M757.2 158.1 l-0.7 0.8l-1 1.2
	M756.5 158.9l-0.5-0.45l-0.55 0.7L755 159.7
	M753.9 162l6.05 5.1l-13.3 15.65l2.149 1.9
	M747.2 153.1 l0.45-0.55l0.55-0.65l-0.45-0.4l-0.6 0.7l-0.45 0.6
	M737.5 179.8c-3.467 0.267-6.333 1.717-8.6 4.35l9.649 8.2l8.101-9.6 C744.017 180.5 741 179.5 737.5 179.8z
	M755.45 159.15l-7.8-6.65
	M748.2 151.85l7.8 6.6
	M773.85 148.85l0.551 0.5l0.699 0.5 l0.4-0.5l-0.7-0.5l-0.55-0.5
	M775.5 149.35l6.6-7.75
	M774.8 148.85l6.601-7.75
	M768.05 158.2l1.75 1.6
	M767.8 157.1l6.601-7.75
	M768.5 157.6l6.6-7.75
	M747.15 152.15l-7.7-6.6
	M740 144.9l7.75 6.5
	M727.9 134.7l7.75 6.5
	M716.5 130.25l17.1 14.6
	M734.6 142.4l-7.699-6.55
	M746.3 257.95l0.601 0.5l7.5-8.8c2.6 2.2 4.1 5.1 4.4 8.5c0.233 3.2-0.566 5.983-2.399 8.3 l0.6 0.5
	M755.85 267.35c0.233-0.267 0.417-0.55 0.551-0.85l-9.5-8.05l-0.65 0.8
	M753.7 270.85L743 261.8
	M777.35 267.6 c-0.199-2.3 0.467-4.333 2-6.1c1.467-1.767 3.351-2.733 5.65-2.9l0.7 8.35L777.35 267.55z
	M785.9 268.75l-8.45 0.8
	M777.85 280.7 l-0.1-0.6l-0.35-5c-0.134-0.5 0.1-0.767 0.699-0.8l5.5-0.5c0.434 0 0.7 0.2 0.8 0.7l0.449 5.05L784.9 280
	M780.85 278.1 c0.167 0.1 0.3 0.1 0.5-0.05c0.2-0.2 0.217-0.383 0.051-0.55c-0.2-0.167-0.4-0.15-0.601 0.1 C780.634 277.8 780.6 277.9 780.9 278.1z
	M787.4 291.15l-0.4 0.5l-2.75 2.65l-0.3 0.1l-4.05-3.1 c-0.301-0.267-0.301-0.583 0-0.95l2.3-2.8l0.399-0.45
	M781.85 288.7l-0.024 0.05c-0.096 0.117-0.054 0.3 0.1 0.4 c0.233 0.2 0.4 0.2 0.6 0c0.134-0.167 0.134-0.333 0-0.5l-0.05-0.05c-0.2-0.167-0.384-0.15-0.55 0.05L781.85 288.7z
	M781.825 288.75l-0.875 1c-0.267 0.333-0.184 0.7 0.2 1l2.85 2.5c0.134-0.2 0.3-0.2 0.5 0l0.9-1.05 c0.333-0.4 0.3-0.784-0.101-1.15l-2.85-2.4
	M784.05 293.25c-0.133 0.133-0.1 0.3 0.1 0.5c0.166 0.1 0.3 0.1 0.5-0.1 c0.066-0.167 0.033-0.3-0.101-0.4
	M784.25 294.3v-0.25L784 294.1l-0.05 0.3
	M787 291.65l-4.8-4.1
	M777.75 280.1l7.1-0.55
	M707.55 226.45l0.7-0.8l-9.55-8.05c-0.2 0.233-0.434 0.483-0.7 0.75l-1.7 2.05l-0.6-0.5l-0.95 1l10.75 9.1
	M698.1 217.1 l-0.699 0.8l0.6 0.5
	M712.15 228.95l0.6 0.5l7.45-8.8c2.6 2.2 4.1 5 4.4 8.5c0.233 3.2-0.55 6-2.35 8.4l0.55 0.5
	M721.7 238.4c0.233-0.267 0.416-0.55 0.55-0.85l-9.5-8.1l-0.7 0.8
	M719.5 241.85l-10.65-9.05
	M681.8 210.9l-1.75 2.2l0.65 0.6 l1.8-2.15L681.8 210.9l-0.6-0.5
	M694.75 220.9l-11.8-10.05l-0.45 0.7
	M679.35 212.55l0.7 0.6
	M680.7 213.65l-0.45 0.5 l-16.3 19.25l-0.5 0.55l-1.75 2.15l-0.5 0.5l5.649 4.8c2.267-2.633 5.134-4.1 8.601-4.4c3.467-0.3 6.5 0.7 9.1 3 l-8.149 9.65l13 11l8.1-9.65c2.634 2.2 4.1 5.1 4.5 8.6c0.233 3.367-0.75 6.4-2.95 9.1c2.301-2.6 5.134-4.067 8.5-4.4 c3.434-0.3 6.5 0.7 9.2 2.95l-8.149 9.65l35.6 30.2l1.9-2.15l3 2.65l9.75 8.2l5 4.2l2.25-2.65l22.25 18.9l-2.25 2.7l1.35 1.1 l-5.45 6.45l6.9 5.9l-1.05 1.25c-5.2 5.566-12.417 11.183-21.65 16.85c-9.333 5.667-17.616 9.5-24.85 11.5l0.699 0.55L714.4 415.1 L692.6 396.65l-9.6-8.15l-2.75-2.4l-10.2 12l2.75 2.45l9.65 8.05l21.8 18.5l-29.55 34.85l-10.05-8.5l-1.551 1.85l9.601 8.2 c-2.267 2.633-5.15 4.116-8.65 4.45c-3.434 0.199-6.467-0.801-9.1-3l-22.9 26.949l22.9 19.45L753.1 395.6l2.851 2.5l-110.5 130.3 l-2.9-2.5l-22.899-19.4l-23.601 27.8c2.634 2.2 4.1 5.1 4.4 8.55c0.233 3.5-0.75 6.567-2.95 9.2l-9.65-8.1l-1 1.1 l10.051 8.551l-18.45 21.699l-2.851-2.399l-9.6-8.15l-3.25-2.75l-7.4 8.75l0.4 0.3l2.75 2.75v0.25l-3 4.1 c-0.333 0.366-0.667 0.399-1 0.1l-2.85-2.399l2.8 2.649l0.05 0.3l-3.05 4.15c-0.334 0.366-0.667 0.417-1 0.15l-2.851-2.45 l-0.399-0.3l-7.351 8.699l3.2 2.75l9.65 8.101l2.85 2.45l-22.6 26.649L460.8 636.9l-12.55 1.25l-24.55 2.75l-12.45 1.3l-6.2 0.8 l-12.5 1.399l-26.85 2.801l-12.5 1.399l-26.1 2.75l-12.65 1.45l-27.8 3.05l-12.5 1.3L249.3 659.7l-4.15-38.25l-4.85 0.649h-0.45 l1.25 11.4c-3.434 0.4-6.483-0.483-9.15-2.65c-2.4-1.933-3.917-4.416-4.55-7.449l-0.45 0.05l-2.65 0.3l6.85 63.45l85.25-9.3 l2.4 22.649l2.15-0.3l-1.35-12.5c3.4-0.366 6.5 0.5 9.2 2.65c2.7 2.2 4.2 5 4.5 8.3 c-0.233-3.333 0.717-6.366 2.85-9.1c2.167-2.667 4.967-4.184 8.4-4.551l1.3 12.5l2.1-0.25l-2.35-22.6l178.7-19.4L526.85 678 l2.15-0.3l-1.4-12.45c3.434-0.4 6.5 0.5 9.3 2.65c2.633 2.1 4.1 4.9 4.5 8.35c-0.334-3.434 0.566-6.5 2.7-9.2 c2.233-2.7 5.083-4.233 8.55-4.6l1.3 12.6l2.15-0.35l-2.551-22.55l8.2-0.851l7.15-8.399l14.149-16.7l3.95-4.7l14.15-16.7l3.95-4.7 L619.35 583.4l11-13l0.75 0.649l0.45-0.55l2.7-3.1l0.45-0.551l16.35-19.3l0.5-0.5l2.65-3.149l0.5-0.601l-0.75-0.7l11.05-13 l14.15-16.649l4-4.7L697.3 491.5l72.55-85.45l1.65 1.45c8.167-1.433 17.05-5.083 26.65-10.95c9.566-6.033 16.833-12.35 21.8-18.95 l4.95-5.85l25.25 21.4l9.649 8.1l4.601 3.95l-1.851 2.2l21.65 18.35l9.649 8.2l1.851 1.55l0.45-0.55l1.8-2.15l0.5-0.55l16.3-19.2 l0.4-0.45l1.85-2.2l0.45-0.6l-56.05-47.55L864.1 359l12.601-1l-0.5-5.2l-12.45 1.1c-0.3-3.533 0.65-6.617 2.85-9.25 c2.267-2.633 5.101-4.083 8.5-4.35c-3.433 0.167-6.433-0.833-9-3c-2.666-2.3-4.149-5.15-4.449-8.55l12.6-1l-0.55-5.3l-12.4 1.1 l-3.25-2.7l29.65-34.95l-0.55-0.5l-2.101-1.8l-0.6-0.5L865.3 266.8l-0.6-0.5l-2.101-1.8l-0.55-0.4L832.4 299.05l-3.2-2.8l-1-12.4 l-5.25 0.3l1 12.6c-3.4 0.3-6.467-0.717-9.2-3.05c-2.566-2.167-4.05-4.95-4.45-8.35c0.334 3.4-0.616 6.433-2.85 9.1 c-2.2 2.6-5.101 4.05-8.7 4.35l-1-12.55l25.2-2.1
	M680.25 214.1l-1.35-1.1L662.6 232.25l1.351 1.1
	M681.65 209.75l1.3 1.1
	M660.35 234.95l0.65 0.5l1.85-2.15l-0.699-0.5
	M663.45 233.9l-0.601-0.6
	M676.45 249.55l-1.8 2.15l1.3 1.1l-36.75 43.3 l-23.351-19.9l29.301-34.5l16.25-1.25l3.699 3.05l1.75-2.15L676.45 249.55z
	M661 235.45l0.7 0.6
	M708.65 276.8l-1.801 2.1 l35.101 29.75L705.2 352l-63.9-54.2l36.75-43.25l9.55 8.1l1.851-2.1
	M708.65 276.8l-19.2-16.25
	M674.65 251.7l-9.551-8.2
	M687.6 262.65l19.25 16.3
	M683 388.5l1.75-1.95l-2.8-2.4l23.2-27.35l28.149 23.85l-3.25 3.8l-1.7 1.95v0.05l-8.3 9.85l-10 11.8 l-6.399-5.45l-9.351-7.9l-1.7 1.9
	M697.25 385.5c-0.233-3.533-1.684-6.417-4.35-8.65l-8.15 9.7l9.55 8.2 C696.566 392 697.5 388.9 697.2 385.5z
	M720.65 379.5l-0.101 0.45l0.3 1.5l1.5 1.85l2.051 1.15l1.199 0.1l0.851-0.15l1.5-1.25 l-0.3-1.7l-0.551-1.25l-0.5-0.7l-1.199-1.05l-0.75-0.35l-1.351-0.35l-0.45-0.05l-0.899 0.2
	M730.05 384.45l-1.5-1.7l-0.6 0.4
	M728.75 385c0.233-0.333 0.184-0.633-0.15-0.9c-0.267-0.233-0.533-0.184-0.8 0.15c-0.233 0.267-0.217 0.5 0.1 0.8 C728.184 385.3 728.5 385.3 728.8 385z
	M726.45 384.4c-0.101 0.4-0.084 0.7 0.1 0.8l1.45 1.3 c0.133 0.1 0.3 0.1 0.399-0.05
	M786.15 338.85l-0.551 0.65l-0.649 0.65l-5.351 6.4l1.5 1.3l2.65 2.2 c-0.7 0.733-1.384 1.45-2.05 2.15l0.45 0.55l0.649 0.75c0.8-0.733 1.584-1.483 2.351-2.25l2.75 2.3
	M758.9 315.7l-1.2 1.35l5 4.2 l0.649-0.7l0.551-0.7l22.25 18.9
	M741.4 381.95l-2.15-1.8l1.25-1.45c0.1-0.034 0.217-0.083 0.35-0.15l-0.25-0.85l-0.199-0.8 c-0.267 0.1-0.567 0.2-0.9 0.3l-1.7 1.95l-6.6-5.6l-23.9-20.25l39-45.9l1.65 1.4l1.2-1.3
	M757.7 317.1 c-2.233 2.6-5.134 4.05-8.7 4.35c-3.4 0.3-6.45-0.683-9.15-2.95l8.101-9.65
	M731.2 373.55l3.25-3.95 c6.633-1.633 14.166-4.967 22.6-10c8.467-4.934 15.033-9.9 19.7-14.9l-19.65-16.75l5.601-6.65
	M757.7 317.05l-9.75-8.25
	M740.4 376.9c4.5-1.333 9.416-3.4 14.75-6.2c2.633-1.3 5.316-2.784 8.05-4.45c2.066-1.333 4.05-2.633 5.95-3.9 c5-3.4 9.183-6.767 12.55-10.1
	M781.1 347.85c-4.733 5.066-11.35 10.217-19.85 15.45c-8.6 5.167-16.217 8.633-22.85 10.4l1.1 3.5
	M734.65 381.85l-23.2 27.4l3.3 2.75l23.2-27.4L734.65 381.85z
	M756 372.2c2.667-1.4 5.434-2.95 8.3-4.65 c2-1.267 3.917-2.517 5.75-3.75l-0.55-0.75l-14 8.4L756 372.2z
	M740.85 378.55c4.601-1.367 9.65-3.483 15.15-6.35
	M740.6 377.7 l14.9-6.25l-0.35-0.75
	M769.15 362.35l0.35 0.7l12.65-10.25
	M770.05 363.8c5.033-3.433 9.283-6.85 12.75-10.25
	M763.35 320.6 l22.25 18.9
	M784.95 340.15L762.7 321.3
	M879.5 203.05l-0.45 0.6l8.7 7.45l-7.5 8.8l0.5 0.4l5.9 5.05l0.5 0.4l0.75-0.9l4.3 3.6 l-8.9 10.5l0.55 0.45l2.101 1.75l0.6 0.55l8.101-9.6c2.6 2.2 4.1 5.1 4.5 8.55c0.166 3.433-0.834 6.466-3 9.1 c2.267-2.566 5.116-4.017 8.55-4.35c3.4-0.3 6.4 0.7 9.1 3L905.7 258l0.6 0.55l2.101 1.7l0.55 0.5l8.899-10.5l4.25 3.6 l0.551 0.45l-0.801 0.9l5.9 4.95l0.5 0.45l7.5-8.8l8.65 7.35l0.5-0.55l5.05-5.9l0.45-0.5l-0.851-0.7l3.601-4.25L966 258.2 l17.2 14.4
	M921.85 255.25l-0.449 0.6l5.85 4.95l0.5-0.6
	M979.9 276.6l-17.15-14.5l-10.8-9.2l-0.4 0.4l-0.399 0.5l-5 5.8 l-0.5 0.6l-0.551 0.65l1.851 1.6l-2.7 3.2l-7.9-6.7l-6.75 7.9l-3.149-2.65l1.55-1.8l-0.65-0.65l-0.55-0.45l-5.85-4.95l-0.55-0.5 l-0.4-0.3
	M920.4 255.9l0.899-1.1l0.8-0.9
	M927.35 261.8l0.9-1.15
	M926.8 261.35l0.45-0.55
	M920.95 256.4l0.45-0.55
	M921.85 255.2 l-0.55-0.45
	M905.7 258l-1.05 1.35l0.55 0.5l0.55-0.7l0.55-0.6
	M908.4 260.25l-0.5 0.7l-0.601 0.65l0.55 0.45l1.101-1.3
	M907.9 260.95l-2.15-1.8
	M907.3 261.6l-2.1-1.75
	M966 258.25l-0.6 0.75l0.6 0.45l7.7 6.6
	M972.7 267.25l-7.75-6.55l-0.601-0.45 l-1.6 1.9
	M964.95 260.7l0.5-0.6l0.55-0.65
	M965.4 259l-1.051 1.2
	M944.9 258.65l0.649 0.5l5.05-5.9l-0.649-0.5
	M951.55 253.3 l-1.149-1.05
	M946.15 259.65l-0.601-0.5
	M951.15 253.8l-0.551-0.55
	M945.65 260.25l-1.25-1.05
	M878.35 202.1l0.601 0.6
	M877.85 202.65l1.2 1
	M879.8 221.5l0.45-0.6l0.5-0.6
	M879.35 221.1l0.9-1.2
	M887.15 225.75l-1 1.1
	M885.7 226.5l0.5-0.55 l-5.95-5.05
	M886.2 225.95l0.45-0.6
	M883.3 239l-1.05 1.3l0.5 0.5l0.6-0.65l0.5-0.7
	M885.95 241.2l-0.55 0.7l-0.601 0.7 l0.601 0.55l1.149-1.35L905.7 258
	M883.35 240.15l2.051 1.8
	M882.75 240.8l2.05 1.8
	M822.7 281.35l0.25 2.8
	M874.5 255.9 l-8.05 9.55l19.149 16.3l8.15-9.65c-2.7-2.233-5.75-3.217-9.15-2.95c-3.433 0.333-6.283 1.783-8.55 4.3 c2.167-2.633 3.15-5.667 2.95-9.1C878.634 260.9 877.1 258.1 874.5 255.9z
	M882.25 240.3l-19.05 22.4l0.55 0.45l2.1 1.8 l0.601 0.55l-1.15 1.4
	M863.75 263.15l-0.65 0.75l2.051 1.75l0.699-0.75
	M863.2 262.7l-1.15 1.4
	M862.6 264.5l0.5-0.6
	M864.7 266.3l0.45-0.65
	M886.15 282.25l-0.601 0.7l2.101 1.8L888.3 284L886.15 282.25l-0.551-0.5l-1.149 1.3
	M885.05 283.6 l0.5-0.6
	M887.7 285.85l1.149-1.4L888.3 284
	M887.65 284.75l-0.5 0.6
	M874.25 327.75l2.75-0.3l-1.984-26.649
	M859.8 401.2 l-1.2 1.4l1.7 1.45L821.35 450L772.9 408.95c8.1-1.534 16.966-5.3 26.6-11.3c9.533-6 16.75-12.316 21.65-18.95l3.85-4.5l24 20.3 l1.15-1.35
	M874.25 327.75l1.95 25.05l2.899-0.15l-2.1-25.2
	M876.95 360.8L865.4 362l12.55 10.6L876.95 360.8z
	M879.1 352.6 l1.601 19.3L947.9 429l3.199-3.7l8.15-9.65
	M904.65 259.35L885.4 243.1
	M888.85 284.45l19-22.4
	M810.7 129.8l-1.601 1.9
	M961.15 417.25c2.6 2.2 4 5.1 4.3 8.55c0.233 3.467-0.75 6.534-2.95 9.2l-9.6-8.1l-3.15 3.65l48.8 41.5l6.75-7.899 l14.4-17.101l32.65-38.5
	M952.95 426.9l-1.851-1.6
	M961.15 417.25l-8.2 9.7
	M917 410.4l0.7 0.6l0.7 0.6
	M917.45 409.8l1.399 1.1
	M914.75 413.05l1.35 1.2l-16.3 19.2l-1.35-1.2
	M916.55 413.7l-0.7-0.55l-0.699-0.55
	M917.7 411l-1.851 2.1
	M895.7 435.5l0.7 0.6 l0.649 0.6
	M897.5 436.1l-0.7-0.55l-0.649-0.6
	M896.8 435.55l1.851-2.15l-0.7-0.6
	M898.65 433.4l0.699 0.6
	M893.85 433.9 l-1.149 1.3l1.899 1.55l0.7 0.6l1.101-1.3
	M867.15 471.95l-1.351-1.2L831.9 442l28.1-33.1l15.7 13.35l0.75-0.8l6.649 5.7 l1.101-1.35
	M890 444.95l-0.7-0.55l-0.649-0.6l-0.4 0.5l0.7 0.6l0.7 0.6
	M892.7 435.25l-8.15 9.6c-2.7-2.267-4.184-5.133-4.45-8.6 c-0.3-3.367 0.7-6.417 3-9.15L892.7 435.25z
	M858.6 402.65l-8.149 9.6c-2.7-2.267-4.167-5.133-4.4-8.6 c-0.333-3.4 0.65-6.45 2.95-9.15
	M749.95 448.05l-7-5.95l6.8-8.05l3.85-4.6l1.7-1.9l3.9-4.6L770 410.2l5.85 4.95l14.301 12.1 l-1.7 2l1.35 1.2l1.7-2l9.75 8.25l-5.8 6.75l1.35 1.15l5.75-6.75l17.851 15.1l-18 21.149L786.2 460.4l1.8-2.15l-1.55-1.35l3.1-3.75 l-1.3-1.15l-6.15 7.25l27.65 23.5l1.2-1.4l-4.05-3.399l-3.2-2.7l6.8-8.05l19.65-23.1l11.149 9.55l8.05 6.8l9.95 8.5l-2.7 3.1 l-3 3.55l-4.85 5.65l1.15 13.7l2.05-0.125L851.8 493l-1.149-10.7l11.8-0.95l1.3 10.801l-3.55 0.25l0.2 1.75l3.5-0.25l0.1 1.6 l1.4-0.25V496l2.649-0.2L868 495.15l1.05-0.101
	M810.5 467.2l3.2 2.75l3.25-3.9l-1.8-1.35l-0.2-0.05l-0.15-0.2l-0.35-0.351 c0-0.033 0-0.066 0-0.1l-0.05-0.05l-0.051-0.15v-0.05c0.025-0.029 0.05-0.063 0.075-0.1c0.017-0.03 0.025-0.063 0.025-0.101 l0.1-0.149c0.033-0.034 0.066-0.067 0.101-0.101l1.1-1.35l1.15-1.3l0.05-0.101l1.175-1.35l0.125-0.15l0.45-0.55l0.024-0.025 l0.15-0.175l2.075-2.45c0.2-0.233 0.383-0.316 0.55-0.25h0.1l-0.05 0.051c0.134 0 0.2 0.1 0.4 0.149l0.399 0.45l1.7 1.6 l6.6-7.8l8 6.85l2.7-3.199
	M849.35 460.45l-2.699 3.2l9.949 8.4
	M853.6 475.6l-9.899-8.5l2.95-3.449l-8.051-6.801l-3 3.5 l-4.5-3.899L817.15 472.85l-3.45-2.899l-6.8 8
	M821.5 455.6c-0.062 0.031-0.195 0.147-0.4 0.351c0.2-0.134 0.351-0.233 0.45-0.3 L821.5 455.6z
	M821.05 456c-0.124 0.124-0.232 0.249-0.325 0.375c0.157-0.158 0.282-0.3 0.375-0.425 C821.084 456 821.1 456 821 456z
	M820.725 456.375L820.7 456.4l-1.45 1.649l-0.5 0.5 c-0.1 0.101-0.184 0.184-0.25 0.25l-0.25 0.2
	M822.3 456.25c-0.233 0-0.434 0.1-0.6 0.3L818.85 460h0.051l1.949 0.1
	M819.25 458.05l-0.3 0.25l-0.075 0.101l-0.075 0.074c-0.014 0.021-0.03 0.046-0.05 0.1
	M818.5 458.8l0.3-0.325
	M818.85 460h-0.3 l-0.1 0.15l-0.125 0.125l-0.275 0.274c0.233-0.066 0.434-0.066 0.6 0
	M818.55 460l0.8-0.9l-0.6-0.5l-0.9 1 c0.134-0.1 0.301-0.083 0.5 0.051c0.101 0.1 0.1 0.2 0.1 0.35H818.55z
	M818.45 460.15c0-0.067 0-0.117 0-0.15
	M818.325 460.275c-0.116 0.089-0.258 0.063-0.425-0.075c-0.167-0.167-0.2-0.334-0.101-0.5l-0.149 0.1 c0 0.067-0.017 0.101-0.051 0.101l-0.6 0.8l0.525 0.475l0.524-0.675l-0.5 0.7l-0.024-0.025l-2.125 2.7 c-0.167 0.233-0.25 0.483-0.25 0.8
	M818.125 459.2c-0.116 0.149-0.225 0.3-0.325 0.45c-0.063 0.095-0.113 0.162-0.149 0.2
	M817.8 459.7h0.05V459.6
	M818.95 458.3l-0.226 0.2
	M816.9 460.65l0.699-0.7
	M814.35 463.75c0.034 0 0.1 0.1 0.1 0.2 l2.5-3.3
	M818.8 464.5c0.2 0.2 0.4 0.1 0.55-0.05c0.167-0.167 0.15-0.334-0.05-0.5c-0.133-0.101-0.283-0.05-0.45 0.1 C818.684 464.3 818.7 464.4 818.8 464.5z
	M819.9 467.8l2.8-3.3c0.133-0.167 0.2-0.417 0.2-0.75l-2.2-2.1l-3.75 4.399l2.45 1.8 C819.6 468.4 819.8 468.3 819.9 467.8z
	M814.8 464.45c-0.166-0.2-0.283-0.351-0.35-0.45
	M815.75 461.9 c-0.643 0.847-1.084 1.413-1.325 1.7
	M826.4 460.35c0.333-0.199 0.267-0.366-0.2-0.5c0.166 0.2 0.2 0.3 0 0.5 C826.267 460.3 826.3 460.3 826.4 460.35z
	M822.9 463.75c0.166 0.2 0.3 0.1 0.449-0.05l2.851-3.351
	M822.8 459.9 c-0.166-0.1-0.316-0.066-0.45 0.101c-0.166 0.166-0.183 0.3-0.05 0.399c0.2 0.2 0.4 0.2 0.6 0 C822.983 460.1 823 460 822.8 459.85z
	M822.7 464.5l3.7-4.15
	M820.7 461.65l-1.8-1.65
	M818.875 458.3l0.875-0.95 c0.366-0.399 0.684-0.716 0.95-0.949l-1.75 1.9
	M826.2 459.85l-2.2-2.05l-3.3 3.9
	M882.55 453.75l-0.649-0.55l-0.7-0.601 l-0.45 0.551l0.7 0.55l0.7 0.6
	M881.45 453.7l-7 8.25l0.649 0.6
	M874.45 461.95l-0.65-0.601l-0.5 0.551l0.7 0.6l0.7 0.6
	M873.8 461.35l6.95-8.199
	M862.7 479.55l-10.9 0.9l8.851-10.4l1.35 1.2L862.7 479.55z
	M867.7 471.35L867 470.7l-0.65-0.55 l-0.55 0.6
	M852.3 494.825h-0.35v0.024L852.3 494.825l8.101-0.675l-5.5 6.399c-0.767-0.566-1.45-1.416-2.051-2.55 c-0.633-1.2-0.933-2.25-0.899-3.15
	M860.2 492.4l-8.4 0.6
	M866.35 470.15l6.95-8.25
	M874 462.5l-7 8.2
	M888.95 444.9l-7.05 8.3
	M881.2 452.6l7.05-8.3
	M864 495.5l0.15 1.95l1.25-1.45
	M789.8 430.45l-7.25 8.5l-10.399 12.3l0.399 5.55l-5.55 0.5l-2.1 2.5 l-0.45 0.55l1.05 0.9l-2.75 3.2l2.45 2.1l8.55 7.2l4 3.45l8.5 7.2l0.55 0.5l2.5-3l9.95 8.449l4.7 4l1.95 22.45l-23.25 27.4 l38.25 32.399l14.5-17.2l14.55-17.1l16.35-19.2L865.15 509.4l-0.15-0.75c-1.066 0-2.233-0.2-3.5-0.601 c-1.767-0.566-3.184-1.366-4.25-2.399l6.9-8.2l0.85 11.2c0.533 0 1-0.017 1.4-0.15l2.699-0.1v0.649l1.101-0.1
	M865.15 509.4 l1.399-0.051l-0.149-0.85
	M835.4 559.35l1.899 1.551l0.5-0.551l6.55-7.75l0.45-0.55l6.55-7.7l0.45-0.55l-1.85-1.55
	M844.35 552.6 l0.551 0.5l0.699 0.551l0.45-0.5l-0.7-0.551l-0.55-0.55
	M839.3 562.65l-0.75-0.7l-1.25-1.05
	M838.55 561.95l0.5-0.601l-0.7-0.5 l-0.55-0.5
	M838.35 560.85l6.551-7.75
	M839.05 561.35l6.55-7.699
	M851.8 543.8l1.25 1.05l0.8 0.7
	M851.35 544.35l0.601 0.5 l0.649 0.551l0.45-0.551
	M851.95 544.85l-6.601 7.8
	M846.05 553.15l6.55-7.75
	M888.65 443.8l5.949-7
	M889.3 444.4l6-7
	M767.35 421.8l1.051-0.35l0.85-0.85l0.7-1.05l0.25-1.05
	M788.45 429.25l-7.3 8.5l1.399 1.2
	M759.2 442.1l6.6 5.55l2.4-2.85 l4.1 3.5l8.851-10.55c-2.301-1.933-3.584-4.45-3.851-7.55c-0.233-3.133 0.65-5.85 2.65-8.15l8.5 7.2
	M788.25 452 c-2.434-2.033-3.733-4.583-3.9-7.65c-0.3-3.033 0.567-5.733 2.601-8.1l8.5 7.2L788.25 452z
	M768.1 416.7l-0.55 0.15l-0.5 0.2 l-1.2 1.35l-0.35 0.5l-0.25 1.1
	M766 416.85l0.05 0.15l0.2 0.1l-0.05-0.3L766 416.85z
	M765.8 417.35l-0.25 0.05v0.2l0.25 0.1 V417.35z
	M765.1 417.95v0.15l0.2 0.1c0.101-0.067 0.101-0.167 0-0.3L765.1 417.95z
	M767 418.65c-0.167 0.2-0.15 0.4 0.1 0.5 c0.233 0.2 0.4 0.1 0.55-0.05c0.2-0.167 0.184-0.35-0.05-0.55C767.35 418.4 767.2 418.4 767 418.65z
	M746.25 440.3 c-0.4 0.434-0.55 0.95-0.45 1.55c0.033 0.6 0.3 1 0.7 1.35l10.7 9.1c0.467 0.4 1 0.6 1.5 0.6 c0.6-0.066 1.1-0.333 1.5-0.8l2.25-2.7c0.366-0.4 0.5-0.883 0.399-1.45c0-0.566-0.233-1.05-0.699-1.45l-10.7-9.05 c-0.4-0.367-0.9-0.533-1.5-0.5c-0.566 0.033-1.033 0.25-1.4 0.65L746.25 440.3z
	M755.3 427.55l1.95 1.6l-0.2 0.2l1.55 0.1 l1.351 0.3l0.75 0.4l1.2 1l0.6 0.75l0.6 1.7l-0.199 1.1
	M753.6 429.45c-0.133 0.2-0.116 0.3 0.1 0.45l1.5 1.2 c0.133 0.1 0.3 0.1 0.449-0.05l0.101-0.15l1.35-1.6
	M754.95 429c-0.3 0.333-0.3 0.6 0 0.9 c0.333 0.2 0.6 0.2 0.899-0.15c0.301-0.333 0.301-0.633 0-0.9C755.517 428.6 755.2 428.6 755 429z
	M755.7 430.9 l0.2 0.65v0.35l0.35 1.15l0.3 0.65l1.15 1.25l1.35 0.9l1.8 0.3l0.9-0.15
	M758.15 441.2l0.35 0.3
	M749.75 434.05l7.65 6.5
	M775.85 415.15L765.1 427.9l-5.899-4.95
	M759.45 449.15c-0.134 0.2-0.117 0.4 0.1 0.5c0.167 0.2 0.3 0.1 0.45-0.05 c0.166-0.2 0.166-0.383 0-0.55C759.783 448.9 759.6 449 759.5 449.15z
	M764.9 459.8l-1.351-1.2l-0.45 0.551l-2.85-2.351 l8.05-9.5l2.8 2.35l-0.35 0.45l1.4 1.15L767 457.3
	M765.8 447.65l-6.8 8l-6.5-5.5
	M726.2 502.95l0.649-0.851l1.051-1.199l1.6-1.9 l-20.3-17.2l26.3-30.899l4.65 3.949l1.1-1.399l-4.65-3.95l5.15-6.05l21.2 17.95l-5.101 6.05l-3.8-3.101l-1.1 1.351l5.1 4.3 l3.65-4.3l2.5 2.1l1-1.25
	M752.95 465.7l-4.15 0.45l-0.35-4.25l-8.3-7.051l0.35 4.2l3.05-0.2
	M729.5 499l12.9 10.9l1.649 1.4 l29.9-35.25l-1.3-1.1l-7.301 8.6c-2.333-1.933-3.649-4.449-3.949-7.55c-0.2-3.1 0.733-5.85 2.8-8.25l8.45 7.2l1.1-1.25
	M754.05 464.35l-12.8-10.899
	M748.45 461.9l4.5 3.8
	M777.75 477.2l-1.1 1.2l8.55 7.199l1.05-1.199
	M775.3 477.25L745.4 512.5 l21.649 18.35l12.851 10.9l1.449 1.2l22.7-26.75l-0.6-7.2l-5.601-4.7l-4.149 0.2l-0.351-4.05l-3.8-3.2l-4.1 0.25l-0.4-4.1l-3.2-2.7 l3.9-4.65l-0.55-0.45c-2.066 2.434-4.617 3.784-7.65 4.051c-3.133 0.233-5.866-0.634-8.2-2.601l7.301-8.649L775.3 477.25z
	M791.45 496.55L786.2 492l-1.15 1.4l4.5 3.9
	M794.15 498.8L799 502.9l4.3 3.6l-0.899-11.25L789.55 484.3l-5.25 6.15l1.9 1.6
	M789.55 453.15l7.25-8.55
	M770.75 450.1l-7.2 8.5
	M713.95 400.05h-0.25l0.05 0.25l0.3 0.05L713.95 400.05z
	M711.75 396.4l-1.5 0.8 l-0.8 0.9l-0.55 1.6
	M711.1 401.55l0.9-0.45l0.9-0.8l0.649-1.05l0.4-1.05
	M712.1 399.1c-0.199-0.167-0.383-0.167-0.55 0 c-0.133 0.167-0.083 0.3 0.1 0.55c0.133 0.1 0.2 0.1 0.3 0C712.217 399.4 712.2 399.3 712.1 399.1z
	M713.2 401.4 l-0.101-0.3l-0.3 0.05l0.101 0.2L713.2 401.4z
	M713.25 400.9l0.35-0.05l-0.1-0.3l-0.25 0.1V400.9z
	M689.75 425.65l-0.05 0.5 l-0.15 0.5l-0.35 0.55l-1.2 1.3l-0.5 0.35l-0.5 0.1
	M689.95 427.4h-0.3l0.1 0.25h0.1L689.95 427.4z
	M689.45 428.15l0.05-0.25 l-0.25 0.05v0.25L689.45 428.15z
	M688.8 428.75h0.15l0.05-0.3l-0.25 0.05L688.8 428.75z
	M697.3 424.65l-24.1 28.45l-29-24.55 l-2.45 3l32.75 27.9l26.65-31.55L697.3 424.65z
	M682.45 408.6l-1.7 2l8.8 7.5l6.351 5.4l-9.9 11.75l-8.2 9.6l-1.649 1.9l-3.2 3.9 L645.35 427.2l23-27.1l2.801 2.35l1.649-1.9
	M671.15 402.45L663 412.1c2.667 2.2 5.7 3.2 9.2 3 c3.466-0.267 6.333-1.75 8.6-4.45L671.15 402.45z
	M684.8 427l0.101-0.45l0.399-1.05l1.351-1.4l0.5-0.25l0.449-0.1
	M687.55 426.4 c-0.166 0.233-0.184 0.417-0.05 0.55c0.2 0.1 0.4 0.1 0.55-0.15c0.2-0.167 0.184-0.333-0.05-0.5 C687.9 426.2 687.8 426.3 687.5 426.45z
	M670.15 438.2l0.449-0.05l1.301 0.15l1.3 0.6l0.649 0.5l0.551 0.55l0.85 1.25l0.4 1.2 l-0.051 0.5
	M674.35 444.85l-0.949 0.2l-1.2-0.15l-1.351-0.65l-0.75-0.5l-1.35-1.8l-0.35-1.15l0.05-1
	M676.5 444.6 c-0.366-0.3-0.65-0.3-0.85 0c-0.301 0.367-0.284 0.7 0.1 0.95c0.333 0.3 0.6 0.3 0.95-0.1 C676.884 445.2 676.8 444.9 676.5 444.6z
	M676.15 446.75l-1.75-1.1l1.6-2.4l1.8 1.6
	M686 435.25l-6.4-5.4l9.95-11.75
	M587.85 543.95l-1.35-1.2l-3.8 4.5l-70.25-59.55l24.45-28.851l8.149-9.6l8.101-9.6l8.199-9.65l8.2-9.65l8.15-9.6l15.35-18.05 l70.25 59.55l-1.6 1.85l1.399 1.2
	M661.7 454.1L653.6 463.7l1.351 1.2l8.149-9.601
	M697.3 491.5l1.05 0.95l0.101-0.15l1.2 1.1 l1.3 1.1
	M683.15 508.25l0.8 1.15l0.5-0.551l6.5-7.75l0.5-0.55l6.5-7.7l0.399-0.399
	M697.95 492.85l0.7 0.551l0.55 0.5 l0.45-0.551
	M653.2 444.55l-50.75-43.1l-2.3 2.65l50.75 43.15L653.2 444.55z
	M726.85 502.1l0.601 0.5l0.5-0.55l0.5-0.649l-0.55-0.5
	M690.95 501.1l0.649 0.551l0.601 0.5l0.5-0.551l-0.55-0.5l-0.7-0.55
	M683.95 509.4l1.25 1l0.45-0.45l-0.601-0.5l-0.6-0.601
	M686.45 511.45l-1.25-1.05
	M681.55 514.75l-1.399-0.85l-0.25 0.3l0.699 0.5l0.551 0.55L681.55 514.75z
	M682.85 515.75l-1.3-1
	M680.15 513.9l-1-0.95
	M654.95 511.3l-2.45 2.9L650 517.1l-2.5 2.95l-2.45 3l-2.5 2.9
	M681.15 515.25L674.6 523l-0.5 0.6 l-6.55 7.75l-0.45 0.5l1.25 1.1
	M667.55 531.3l-0.649-0.5l-0.601-0.6l-0.45 0.55l1.25 1.1
	M665.85 530.75L665 529.6
	M654.2 543.9 l0.649 0.55l0.601 0.5l0.45-0.601l-1.2-1.05
	M674.6 523l-0.6-0.5l-0.65-0.6l-0.5 0.6l0.7 0.55l0.55 0.5
	M680.6 514.7l-6.6 7.8
	M673.35 521.9l6.551-7.7
	M672.85 522.5l-6.55 7.7
	M666.9 530.8l6.649-7.75
	M682.5 566.9l-1.25-1.051l-0.45 0.601L681.4 567 l0.649 0.5
	M655.9 544.35l1.55 1.301l2.55-2.95l23.35 19.8l-2.5 2.95l0.4 0.4
	M655.45 544.95l-2.7 3.149l-0.45 0.551l9.601 8.1 c-2.267 2.7-5.134 4.167-8.601 4.4c-3.399 0.233-6.434-0.733-9.1-2.9c2.566 2.3 4 5.1 4.4 8.6 c0.233 3.434-0.783 6.483-3.05 9.15l-9.6-8.1l-0.45 0.55l-2.7 3.149l-0.45 0.551l1.551 1.25l-2.5 2.949l23.3 19.851l2.55-3 l0.45 0.45l0.45-0.551l2.699-3.149l0.5-0.55l16.301-19.25l0.449-0.551l2.7-3.149
	M652.75 548.1l-0.6-0.5l-0.601-0.55
	M651.05 547.55l1.25 1.1
	M660.85 589.95l0.65 0.55l0.6 0.5
	M661.35 589.4l1.2 1l16.351-19.2l-1.25-1.05
	M658.15 593.1 l0.649 0.551l2.7-3.15
	M681.4 567l-2.601 3.15l0.55 0.5
	M678.1 569.6l0.7 0.6
	M685.05 509.45l6.55-7.8
	M685.65 509.95l6.55-7.8
	M654.85 544.45l-2.699 3.1
	M793.35 500.45l4.5 3.85L799 502.9
	M771.55 539.05l0.55-0.649l-0.5-0.4l-0.55 0.7l-0.45 0.5 l0.5 0.399L771.55 539.05z
	M771.1 539.6l5.65 4.75l0.45-0.55l-5.65-4.75
	M772.1 538.4l5.65 4.75l0.55 0.5l1.601-1.9
	M777.2 543.8 l0.55-0.649
	M734.1 506.15l-0.6 0.649l-0.45 0.55l0.5 0.4l0.5-0.55l0.5-0.65L734.1 506.15z
	M740.75 511.8l-0.55-0.45l-0.5 0.6 l-0.5 0.55l0.55 0.5L740.75 511.8z
	M742.4 509.9l-1.65 1.9
	M734.55 506.55l5.65 4.8
	M734.05 507.2l5.65 4.8
	M733.55 507.8 l5.65 4.8
	M739.75 513l-0.65 0.8
	M767.05 530.85l-1.6 1.9l0.5 0.45l5.649 4.8
	M765.95 533.2l-0.55 0.649l5.649 4.9
	M770.6 539.2 l-5.649-4.8l-0.5-0.45l-0.7 0.8
	M765.4 533.85l-0.45 0.6
	M764.45 533.95l1-1.2
	M776.6 545.65l0.7-0.851l-0.55-0.45
	M777.3 544.8 l1-1.149
	M692.7 501.6l6.5-7.699
	M698.65 493.4l-6.5 7.7
	M728.45 501.4l5.649 4.8
	M727.95 502.05l5.55 4.8
	M727.45 502.6 l5.6 4.8
	M659 594.65l-1.3-1
	M658.8 593.65l0.601 0.4
	M1061.3 401.9l0.601 0.55l0.6 0.5
	M1062.35 401.9l0.65 0.6
	M1054.3 410.15l1.25 1.1
	M1055.95 410.7l-0.65-0.5l-0.6-0.55
	M1061.9 402.45l-6.601 7.8
	M1009.2 467.4l-0.8-0.65l-1.2-1.05 l-1.851-1.55
	M1008.4 466.75l0.399-0.5l-0.649-0.5l-0.601-0.55l-0.35 0.5
	M1023.6 450.35l-0.75-0.649l-0.399 0.5l-6.601 7.8 l-0.449 0.55l-6.601 7.8
	M1007.55 465.2l6.65-7.75l0.399-0.55l6.65-7.75l0.4-0.5l-1.9-1.6
	M1014.6 456.9l0.601 0.55l6.649-7.75 l-0.6-0.55
	M1021.85 449.7l0.601 0.5
	M1014.2 457.45l0.55 0.55l0.65 0.5
	M1022.85 449.7l-1.199-1.05
	M1015.85 457.95l-0.649-0.5
	M1008.15 465.75l6.6-7.75
	M720.05 396.3l-6.45-5.45l-9.949 11.8
	M858.6 402.65l-9.6-8.15
	M973.25 266.65l-7.8-6.55
	M627.45 348.9 l-13.9-69.9l-60 70.65l71.2 2.5
	M274.15 657.1l-0.2-1.75l-23.1 2.551l-6.75-61.65l12.75-1.4V593.4l-0.3 0.05l-0.3-1.55l-0.15-1.5
	M256.85 593.4h0.3l0.05-0.7l-0.1-0.9l-0.85 0.1
	M270.15 588.85l0.1 1.65l0.2 1.45l-0.15 1.5l11.45-1.25l6.65 61.6l-1.85 0.1 l0.1 1.9
	M270.25 590.5h-0.65l0.05 0.8v0.75l0.8-0.1
	M269.65 591.3l-12.45 1.4
	M257.15 593.4l12.5-1.351
	M269.6 590.5l-12.5 1.3
	M296.15 589.25l12.6-1.45l-0.05-0.8l-12.65 1.4L296.15 589.25h-0.4l0.25 1.4l13.3-1.5l0.1-1.351h-0.65
	M296.05 588.4v-0.7 l-0.8 0.05l0.3 1.55l0.2-0.05
	M295.25 587.75l-0.1-1.6
	M314.45 652.75l-0.05-1.7l-24.3 2.5l-6.6-61.45l12.5-1.449
	M308.7 587 l-0.1-0.75l-12.55 1.4
	M309.1 584.55l0.15 1.7l0.15 1.6
	M309.25 586.25h-0.65
	M309.3 589.15l12.9-1.351l6.6 61.7l-1.85 0.1 l0.15 1.7
	M234.8 851.1l1.55-0.149l1.5-0.2l1.6 0.15l-3.5-32.851l11.15-1.25l-2.4-22.649l18.6-1.95l-0.2-1.851L255 791.2 l-2.65-24.9l-3.4-31.399l-1.1-9.9l-1.75 0.15l6.1 55.85l1.1 10.5l-57.45 6.25l-1.1-10.5l-6.05-55.35l-9.75 1.05l0.1 1.4 l8.45-0.899l4.15 38.1l-8.4 0.95l0.2 1.35l8.35-0.85l2.35 21.9l-29.3 3.199l-2.3-22l8.4-0.85l-0.2-1.45l-8.35 0.9l-4.15-38.15 l8.4-0.8l-0.2-1.4l-11.85 1.25l-2.4-22.35l-4.95 0.5l0.25 1.9l9.4 86.399l-61.5 6.55l-9.1-83.649l-9.1-84.3l61.5-6.65l4.15 38.1 l21.95-2.551l-0.25-1.6l-17 1.8l-4.1-37.25l31.65-3.45l4.05 37.25l-2.05 0.2l0.15 1.7l3.9-0.35l-4.3-39l21.1-2.351l-0.15-0.95 l-0.05-0.05l0.1-2.1l-0.65 0.05l-0.15-1.4
	M147.5 715.65l-3.45 0.399l0.35 2.65l-20.8 2.2l0.15 1.35l22.05-2.4l4.2 39.101l-22 2.5 l0.15 1.25l22.05-2.4l4.15 38.95l-57.1 6.3l-4.15-39l21.75-2.35l-0.05-1.45l-21.9 2.35l-4.25-38.95l21.9-2.35l-0.15-1.35 l-24.1 2.5
	M156.85 736.8l6.85 62.851l30.6-3.301l0.15 1.5L161.8 801.4l-6.95-64.351L156.85 736.8z
	M110.4 722.4L109 709 c3.633-0.3 6.9 0.7 9.7 2.9c2.867 2.3 4.5 5.3 4.9 8.9
	M114.8 762.7l13.2-1.3c-0.4-3.733-2.067-6.75-5-9.051 c-2.833-2.333-6.083-3.283-9.75-2.85L114.8 762.7z
	M128.15 762.65l-13.3 1.5
	M123.75 722.25l-13.2 1.5
	M110.4 722.4l13.2-1.5
	M273.95 655.35c-0.333-3.466 0.583-6.566 2.75-9.3c2.167-2.633 4.966-4.133 8.4-4.5l1.45 12.4L273.95 655.35z
	M314.4 651 l12.55-1.45l-1.4-12.449c-3.466 0.399-6.3 1.933-8.5 4.6C314.883 644.5 314 647.6 314.4 651.05z
	M239.45 850.9l3.3 30.1 l30.05-3.15l33-3.6l-4.5-42.2l24.7-2.7l1.45 13.95l8.75-0.95l0.95 9.95l0.4-0.1l8.25-0.851l1.5-0.199l12.55-1.301l1.5-0.149 l8.35-0.95l0.2 0.05l-1-10l34.2-3.649l0.9 9.899l0.4-0.1l8.15-0.8l0.8-0.051l14.15-1.649l0.7-0.05l8.3-0.851l0.3-0.1l-1.05-9.851 l34.15-3.8l1 10.05l0.399-0.05l8.15-0.85l0.649-0.05l14.25-1.601l0.65-0.05l8.3-1h0.25l-0.95-9.9l34.2-3.75l0.65 9.95l0.75-0.05 l8.05-0.85l0.8-0.051l14.15-1.6l0.7-0.15l8.25-0.85l0.699-0.05l-3.05-24.7l9.3-0.8l-0.1-0.55l-0.75-6.9l-0.1-0.7l-2.65-25.149 l-0.05-0.601l-0.75-6.95l-0.2-0.699h-0.2l-4.25-41.101v-0.7l-0.85-6.949v-0.75L564.6 685.35l-0.149-0.75l-0.8-6.949V677.3l-9.25 1 l-25.051 2.8l-8.149 0.851l-2.5-22.601L351.75 677.45l2.45 22.5l-7.8 0.95l-25.05 2.699l-1.85 0.2l1.85 16.9 c0.1 1.133-0.184 2.149-0.85 3.05c-0.733 0.967-1.683 1.483-2.85 1.55l-32.05 3.55l7.3 66.101l-10.9 1.2l-8.65-79.101l39.85-4.3 l-0.95-8.25l-2.45 0.35l-0.15-1.75l3.95-0.449l-2.3-21.551l-44.8 4.851l1.15 10.399l-20.9 2.25l1.25 11.25l1.05-0.149l0.25 1.7 l-2.85 0.399l0.1 0.601L259 711.05c0.4 3.434-0.5 6.533-2.7 9.3c-2.167 2.667-4.983 4.217-8.45 4.65l-1.3-12.6
	M211.2 625.2 l-0.25-1.05l-0.15 1.05H211.2l11.3-1.2l4 37.4l-12.7 1.3l0.2 1.7l2.2-0.2l10.5-1.1l4.9 45.899l0.55 4.25l12.5-1.3l0.15 0.7 l1.75-0.25
	M211 620.7l0.2 1.3l-0.65 0.05l0.45 2.101l-0.05 0.1
	M212.05 636.75l-1.25-11.5l-12.45 1.2 c0.5 3 2 5.5 4.4 7.5C205.517 636.2 208.6 637.1 212.1 636.75z
	M240.3 622.1l-0.1-1.149l-0.15-0.05l-0.2 1.2
	M240.05 617.45l0.2 1.399L239.6 619l0.45 1.9
	M226.95 623.45l-0.2-1.05l0.3-2.051l-0.75-0.05l-0.05-1.3
	M226.75 622.4 c0.4 0.3 0.6 0.7 0.7 1l12.45-1.301
	M197.75 625.55l0.1 0.05h-0.05c0.3 0.3 0.5 0.6 0.6 0.9l-0.4 0.1
	M177.1 666.5 l-1.3-12.45c-3.533 0.4-6.4 1.934-8.6 4.601c-2.133 2.767-3.017 5.866-2.65 9.3L177.1 666.55z
	M177.25 668.25l-12.45 1.4
	M219.7 686.2l0.65 5.95c0.1 0.4 0.3 0.6 0.6 0.55l6.1-0.75c0.233-0.033 0.383-0.217 0.45-0.55l-0.75-6 c-0.033-0.301-0.2-0.45-0.5-0.45l-6.05 0.7C219.867 685.8 219.7 685.9 219.7 686.2z
	M227.45 687.5l-0.05-0.2l-0.1 0.1 l-0.05 0.101L227.45 687.5z
	M227.6 688.05l-0.05-0.3l-0.25 0.05l0.05 0.15L227.6 688.05z
	M227.4 688.3l0.05 0.101h0.1V688.3H227.4z
	M225.9 688.35c-0.133 0.167-0.15 0.284-0.05 0.351c0.133 0.2 0.2 0.2 0.3 0c0.133-0.134 0.117-0.25-0.05-0.351H225.9z
	M227.6 689l0.05-0.3l-0.15 0.149V689H227.6z
	M227.5 689.5l0.15-0.1l0.1-0.051l-0.2-0.1L227.5 689.5z
	M237.85 705l-0.1 0.05v0.101 h0.15L237.85 705z
	M237.7 704.75l0.1-0.05l0.05-0.15l-0.2 0.05L237.7 704.75z
	M238 703.8l0.45 3.5c0 0.3 0.1 0.4 0.5 0.4 l6.1-0.65c0.433 0 0.6-0.184 0.5-0.55l-0.35-3.45c-0.066-0.366-0.267-0.467-0.6-0.3l-6.1 0.6 C238.117 703.4 238 703.5 238 703.8z
	M239.1 705.3c-0.1 0.167-0.1 0.3 0 0.351c0.133 0.1 0.3 0.1 0.45-0.051 c0.067-0.066 0.017-0.166-0.15-0.3H239.1z
	M228.25 695l-0.15 0.15l0.2-0.101V694.9L228.25 695z
	M228.15 696v0.1l0.25 0.101v-0.3 L228.15 696z
	M228.15 695.45l0.05 0.2l0.15-0.051v-0.1L228.15 695.45z
	M228.25 696.45l0.05 0.1l0.2 0.101l-0.1-0.2H228.25z
	M228.4 697.1h0.1l0.05-0.25l-0.2 0.101L228.4 697.1z
	M227.1 696c-0.167-0.1-0.3-0.083-0.4 0.05c-0.133 0.134-0.117 0.3 0.1 0.4 l0.3-0.15C227.183 696.2 227.2 696.1 227.1 696z
	M227.7 693.05c-0.1-0.333-0.317-0.467-0.65-0.399l-6.1 0.6 c-0.333 0.033-0.467 0.184-0.4 0.45l0.7 6.05c-0.033 0.3 0.1 0.5 0.5 0.4l6.1-0.55c0.3-0.101 0.467-0.301 0.5-0.601 L227.7 693.05z
	M237.95 706.5l-0.05 0.05v0.101h0.1L237.95 706.5z
	M237.95 706l-0.15-0.05l-0.05 0.3l0.3-0.1L237.95 706z
	M237.75 705.7l0.15 0.05l0.1-0.3l-0.3 0.05L237.75 705.7z
	M241.85 732.9l0.55 4.399c0 0.4 0.2 0.5 0.7 0.5l4-0.399 l-0.6-5.551l-4 0.4C242.05 732.3 241.8 732.5 241.8 732.9z
	M231.6 709.05l-10.3 1.15l-5.1-45.95
	M179.05 734.35l-12.4 1.4
	M178.95 732.95c-0.4-3.434-1.934-6.217-4.6-8.351c-2.733-2.166-5.817-3.1-9.25-2.8l1.35 12.55L178.95 732.95z
	M170.75 773.8 l-1.35-12.45c3.434-0.333 6.5 0.6 9.2 2.65c2.633 2.2 4.2 5 4.6 8.5
	M170.95 775.25l12.5-1.4
	M170.75 773.8l12.5-1.3
	M216.9 791.8c-0.1 0.134-0.083 0.3 0.1 0.4l0.35-0.15c0.1-0.1 0.1-0.2 0-0.3C217.133 791.6 217 791.7 216.9 791.8z
	M220.7 785.95l0.65 6.149c0 0.3 0.1 0.5 0.5 0.4l6.1-0.6c0.367-0.034 0.5-0.25 0.4-0.65l-0.65-6 c-0.066-0.3-0.233-0.45-0.5-0.45l-6.05 0.7C220.767 785.5 220.6 785.7 220.7 785.95z
	M211.8 786.45l-6.05 0.7 c-0.333 0.033-0.467 0.199-0.4 0.5l0.7 6.1c-0.033 0.3 0.1 0.5 0.6 0.5l6-0.7c0.3-0.033 0.417-0.2 0.35-0.5l-0.65-6.2 C212.233 786.6 212.1 786.5 211.8 786.45z
	M219.4 785.6l-5.9 0.65c-0.4 0.033-0.567 0.233-0.5 0.6l0.75 6.1 c-0.033 0.3 0.1 0.4 0.5 0.399l5.95-0.649c0.333 0 0.483-0.184 0.45-0.55l-0.6-6.15C220.017 785.7 219.8 785.6 219.4 785.6z
	M225 791.25l-0.15-0.3l-0.3-0.05c-0.1 0.133-0.083 0.2 0.1 0.35C224.733 791.4 224.9 791.4 225 791.25z
	M321.35 703.6 l-0.4-3.35l25-2.65l0.45 3.3
	M312.25 704.5l7.25-0.7
	M248.7 728.9l0.65 5.649l4.05-0.55c0.434 0 0.6-0.167 0.5-0.6l-0.45-4.4 c-0.133-0.4-0.35-0.6-0.65-0.6L248.7 728.9z
	M252.35 729.15l-2.2 0.75l0.35 3.3l2.3 0.2c0.233-0.034 0.35-0.134 0.35-0.301 l-0.4-3.6
	M250.85 731.25l-0.4 0.05c-0.1 0.167-0.083 0.3 0.1 0.4c0.2 0.1 0.3 0.1 0.5 0 C251.05 731.5 251 731.4 250.8 731.25z
	M249.55 730.6l0.05-0.199l-0.2 0.05l0.05 0.2L249.55 730.6z
	M249.5 731.6 l0.05 0.101l0.2 0.1l-0.05-0.3L249.5 731.6z
	M249.4 731l0.05 0.15l0.15 0.05l0.1-0.25L249.4 731z
	M249.7 732.3l-0.05-0.2 l-0.1 0.051l-0.05 0.149H249.7z
	M249.85 732.75l-0.1-0.1h-0.15v0.199L249.85 732.75z
	M250.35 735.85l0.35 3.4 c0 0.3 0.2 0.5 0.6 0.5l6.05-0.7c0.333-0.033 0.483-0.217 0.45-0.55l-0.35-3.4c-0.033-0.333-0.25-0.5-0.65-0.5l-6.05 0.7 C250.4 735.3 250.3 735.5 250.3 735.85z
	M244.8 734.6c-0.133 0.134-0.117 0.2 0.1 0.4 c0.167 0.2 0.3 0.2 0.5 0.05c0.1-0.167 0.083-0.316-0.05-0.45C245.05 734.5 244.9 734.5 244.8 734.6z
	M246.1 733.6 l0.05-0.2h-0.2l0.05 0.2H246.1z
	M246.05 734.7l0.2 0.1v-0.3l-0.2 0.1V734.7z
	M246.05 734.2h0.2V734H246L246.05 734.2z
	M246.35 735.3l0.05-0.149l-0.2-0.051l0.05 0.2H246.35z
	M246.2 735.65v0.199l0.2-0.05v-0.1L246.2 735.65z
	M242.65 733.3l0.75 3.9 c0.967-0.233 1.7-0.534 2.2-0.9l-0.35-3.1c-1.033-0.301-1.8-0.4-2.3-0.301
	M251.7 737.25l-0.35-0.05 c-0.1 0.133-0.083 0.3 0.1 0.399c0.2 0.2 0.3 0.2 0.5 0L251.7 737.25z
	M250.15 736.5l-0.2-0.05l-0.05 0.3l0.25-0.15V736.5 z
	M250.15 737.2l-0.05-0.2h-0.15l0.05 0.15L250.15 737.2z
	M250.2 737.7v-0.25l-0.25 0.1l0.1 0.101L250.2 737.7z
	M250.35 738.4 l-0.3 0.05l0.15 0.2l0.05-0.051L250.35 738.4z
	M250.05 738l0.05 0.05l0.1 0.05V737.9L250.05 738z
	M248.95 734.9l10.35-1.15 l3.5 31.3l-10.45 1.2
	M244.8 712.65l1.3 12.5
	M252.2 781l-57.45 6.2
	M248 709.85L237.55 711l-2.4-21.7l31.35-3.35
	M270.3 593.5 l-13.45 1.4
	M587 419.6c8.233 3.9 17.4 10.2 27.6 18.8c10.199 8.7 17.9 16.8 23.1 24.3l-2.75 2.1 c-5.1-7.3-12.65-15.2-22.65-23.7c-9.966-8.434-18.966-14.567-27-18.4L587 419.6z
	M569.55 420.35l9.601 8.2 c8.3 4 17.6 10.3 27.8 19.05c10.267 8.7 18 16.8 23.3 24.25l9.6 8.15l8.15-9.65l-9.65-8.149 c-5.2-7.467-12.95-15.55-23.25-24.25c-10.233-8.667-19.467-15.017-27.7-19.05l-9.649-8.15
	M570.65 438.9 c8.233 4 17.4 10.3 27.6 18.85c10.233 8.7 17.9 16.8 23.1 24.2l-2.75 2.149c-5.101-7.3-12.634-15.2-22.601-23.7 c-10-8.466-19-14.6-27-18.399L570.65 438.85z
	M578.8 429.25c8.233 4 17.4 10.3 27.6 18.9s17.899 16.7 23.1 24.2 l-2.75 2.101c-5.1-7.334-12.633-15.233-22.6-23.7c-10-8.467-19.017-14.617-27.05-18.45L578.8 429.25z
	M610.6 493.6 c-5.166-7.301-12.75-15.2-22.75-23.7c-10-8.434-18.966-14.584-26.899-18.45l1.55-3.05c8.267 3.9 17.5 10.2 27.6 18.8 c10.233 8.7 17.9 16.8 23.1 24.3L610.6 493.65z
	M639.8 480l-8.2 9.6l-8.199 9.65l-8.15 9.6l-8.1 9.601l-12.5 14.7l1.399 1.1 l-8.2 9.7
	M632.05 491.85l-2.399 2.95l22.85 19.4
	M631.6 489.6l-9.6-8.1c-5.2-7.533-12.95-15.65-23.25-24.35 c-10.2-8.7-19.45-15.017-27.75-18.95l-9.65-8.2
	M623.4 499.25l-9.601-8.15c-5.2-7.433-12.95-15.533-23.25-24.3 c-10.2-8.633-19.45-14.967-27.75-19l-9.649-8.15
	M546.25 467.65c8.2 4 17.4 10.3 27.6 18.9 c10.233 8.7 18 16.7 23.2 24.15l-2.85 2.25c-5.034-7.367-12.551-15.3-22.551-23.8c-9.966-8.434-19-14.551-27.1-18.351 L546.25 467.65z
	M615.25 508.85l-9.6-8.149c-5.2-7.467-12.95-15.55-23.25-24.25c-10.233-8.667-19.483-15.017-27.75-19.05 l-9.601-8.15
	M607.15 518.45l-9.65-8.101c-5.2-7.466-12.95-15.583-23.25-24.35c-10.233-8.634-19.467-14.95-27.7-18.95l-9.649-8.2
	M554.4 458.05c8.199 3.9 17.4 10.2 27.6 18.851c10.2 8.7 17.9 16.8 23.1 24.25l-2.75 2.1 c-5.134-7.3-12.684-15.217-22.65-23.75c-10-8.467-19-14.6-27-18.399L554.4 458.05z
	M528.85 541.15l-5.449 6.35l2.199 1.9l1.65-1.9 l0.7 0.6c0.2 0.1 0.5 0.1 0.8 0c0.3-0.267 0.767-0.3 1.4-0.1c1 0.4 1.3 1.1 0.9 2.1 c-0.101 0.366-0.034 0.6 0.2 0.85l0.75 0.6l-1.649 1.95l2.149 1.75l5.7-6.149l-5.45 6.399l1.101 0.9l5.649-6.65l18.101 15.4 l4.85-5.6l4.55 3.85c2.233-2.6 5.084-4.066 8.551-4.4c3.433-0.3 6.5 0.7 9.2 2.95l-8.149 9.601l1.5 1.25l13.399-15.75 L527.65 502.9l-0.95 1.1l9.85 8.4c-2.233 2.6-5.1 4.066-8.6 4.399c-3.467 0.2-6.601-0.883-9.4-3.25l-1.2 1.4l1.95 1.6L513.9 522.9 c1.767 1.5 3.8 2.2 6 2c2.3-0.2 4.2-1.184 5.7-2.95l2.1 1.3l-14.05 16l2.45 2.15l1.649-1.95l0.65 0.6 c0.233 0.2 0.5 0.1 0.899-0.05c0.434-0.2 0.917-0.2 1.4 0c0.367 0.2 0.7 0.5 0.9 0.9c0.2 0.4 0.2 0.8 0.1 1.2 c-0.1 0.333-0.05 0.6 0.1 0.8l0.75 0.6l-1.65 1.9l2.4 2
	M493.25 518l0.05-1.7l1.15-1.95l0.6-0.6l1.15-0.8l0.75-0.3l0.85-0.15 l0.45 0.1
	M527.65 502.9L511.35 489.05l-23.8 28l3.851 3.4l1.199-1.9c0.167-0.2 0.317-0.217 0.45-0.05l1.9 1.6 c0.133 0.1 0.1 0.25-0.05 0.45l-1.551 1.5l10.5 8.851l13.5-15.95
	M499.9 513.9l0.199 0.899v0.45l-0.8 2.1l-1.05 1.3 l-1.95 1.05l-0.899 0.1
	M493.55 519.75c-0.267-0.233-0.55-0.2-0.85 0.1c-0.3 0.334-0.3 0.6 0 0.9 c0.333 0.3 0.6 0.2 0.95-0.1C493.917 520.3 493.9 520 493.6 519.75z
	M493.35 522.05l-1.949-1.6
	M482.8 534.6 l0.5-0.101l1.7-0.649l1.2-1l0.55-0.75l0.7-2.101l0.05-1.5l-1.75-1.899l1.2-1.45c0.07-0.118 0.146-0.16 0.225-0.125L483.5 521.8 L459.2 550.4l16.35 13.85l0.95-1.1l9.85 8.35c2.233-2.6 3.217-5.65 2.95-9.15c-0.3-3.5-1.85-6.416-4.649-8.75l1.6-1.85l7.65-9.025 l5.85-7.024l-10.45-8.95c0.134 0.1 0.1 0.3 0 0.4l-1.6 1.55l-0.2-0.15
	M487.175 525.075l0.075 0.075l2.05 1.6
	M487.9 526.4 c-0.301-0.233-0.601-0.184-0.9 0.149c-0.233 0.3-0.217 0.6 0.1 0.8c0.367 0.3 0.7 0.3 0.9 0 C488.267 527 488.2 526.7 487.9 526.4z
	M501.95 541.5l-0.55-0.1l-0.5 0.1l-0.7 0.3l-1.8 1.45l-0.5 0.7l-0.65 1.25l-0.05 0.8 l0.1 0.9
	M505.9 540.8l-1.95-1.649c-0.167-0.101-0.316-0.084-0.45 0.05l-1.25 1.5l1.8 1.899l0.2 0.15l1.6-1.5 C505.983 541.1 506 540.9 505.9 540.8l3.75 3.25l4.1 3.45l2 1.7l0.025 0.024l3.774 3.176l4.101 3.5l2 1.699l0.024 0 l3.775 3.175l0.45 0.45l18.149 15.4l-5.649 6.699l-5 5.95l4.55 3.9l1.1-1.351
	M504.45 540.45c-0.3-0.233-0.584-0.184-0.851 0.1 c-0.267 0.301-0.267 0.6 0 0.851c0.334 0.2 0.6 0.2 0.9-0.05C504.8 541 504.8 540.7 504.4 540.45z
	M499.35 548.6 l0.5-0.051l1.75-0.649l1.15-1.05l0.85-1.4l0.45-1.4v-1.5
	M499.75 535.7l4.2 3.5
	M516.45 527.95l0.25 0.899l-0.05 0.45l-0.45 1.4 l-0.851 1.399l-1.25 1.05l-1.25 0.65l-0.949 0.1
	M509.9 532.05l-0.15-0.55l0.15-1.15l0.649-1.3l1.05-1.25l1.2-0.8l0.75-0.3 L514 526.6l0.45 0.1
	M503.85 530.9l4.101 3.5l1.2-1.801c0.166-0.199 0.316-0.25 0.449-0.149l1.95 1.7 c0.101 0.1 0.1 0.25-0.1 0.449l-1.5 1.5l3.75 3.1
	M509.95 536.1l-2-1.699
	M510.15 534.65c0.3-0.301 0.283-0.567-0.051-0.801 c-0.3-0.267-0.583-0.25-0.85 0.051c-0.3 0.333-0.3 0.6 0 0.899C509.583 535.1 509.9 535 510.1 534.65z
	M523.65 555.9 c-0.167-0.101-0.317-0.084-0.45 0.05l-1.2 1.45c-0.134 0.199-0.116 0.4 0.1 0.6h0.15l1.6 1.35l0.25 0.2l1.55-1.5 c0.155-0.187 0.181-0.328 0.075-0.425
	M513.45 549.8c0.333 0.3 0.6 0.2 0.95-0.05c0.3-0.333 0.283-0.634-0.051-0.9 c-0.267-0.233-0.55-0.183-0.85 0.15C513.2 549.3 513.2 549.6 513.5 549.8z
	M513.75 547.5c-0.167-0.134-0.316-0.1-0.45 0.1 l-1.25 1.45c-0.1 0.134-0.066 0.3 0.1 0.45l0.25 0.15l1.5 1.35l0.25 0.15l1.6-1.5c0.157-0.158 0.166-0.3 0.025-0.426
	M512.4 549.65l-0.75 0.149H511.3l-0.5 0.101l-1.3 0.6l-1.2 1.15l-0.8 1.3l-0.45 1.399v0.9
	M509.25 557.05h0.5l1.7-0.7l0.6-0.5 l1.101-1.3l0.35-0.649l0.4-1.4V551
	M524.2 557.25c-0.3-0.3-0.584-0.267-0.851 0.1c-0.3 0.301-0.283 0.6 0.1 0.9 c0.333 0.3 0.6 0.2 0.949-0.05C524.616 557.8 524.6 557.5 524.2 557.25z
	M522.05 558l-0.5 0.15h-0.35l-0.45 0.1 l-1.35 0.601l-1.25 1.149l-0.801 1.25l-0.399 1.45v0.85
	M519.1 565.45l0.5-0.101l1.75-0.649l0.551-0.45l1.1-1.3l0.35-0.65 l0.45-1.899l-0.05-0.4l0.05-0.65
	M519.55 552.4l-13.7 16.199l0.2 0.301l0.2-0.2L519.55 552.4z
	M505.85 568.6l-1.449-1.449 c1.466-1.801 2.116-3.834 1.949-6.101c-0.166-2.333-1.149-4.25-2.949-5.75l-5.4 6.4l-1.85-1.15l-0.2-0.3l-1.45-1.5 c1.467-1.8 2.116-3.85 1.95-6.15c-0.167-2.3-1.134-4.199-2.9-5.699l-5.45 6.449l-1.649-1.449l-0.2-0.15
	M498 561.7l-1.6-1.351 l-0.25 0.2
	M529.45 560.8l-13.9 16.3l-1.3-1.6c1.533-1.767 2.2-3.8 2-6.1c-0.267-2.334-1.283-4.267-3.05-5.801l-5.7 6.7 l-1.45-1.399
	M507.5 570.3l-1.25-1.6
	M553.45 564.4l-0.351-0.95l-0.449-0.5l-0.95-0.851l-1.05-0.449l-0.45-0.051
	M550.75 564.4 c-0.2-0.166-0.366-0.199-0.5-0.1c-0.134 0.233-0.1 0.4 0.1 0.6c0.2 0.2 0.4 0.1 0.45-0.05 C550.967 564.7 551 564.5 550.8 564.35z
	M548.4 563.75l0.1 0.45l0.3 0.6l0.851 0.851l1 0.649l0.5 0.2l0.5 0.1
	M548.75 565.55l-0.25 0.05v0.301l0.25-0.101V565.55z
	M549.5 566.75h0.3l-0.05-0.3l-0.25 0.05V566.75z
	M549.3 566.05h-0.25v0.3 l0.25-0.05V566.05z
	M541.15 556.55c-0.101 0.233-0.051 0.4 0.1 0.601c0.167 0.2 0.3 0.1 0.4-0.101 c0.166-0.1 0.149-0.233-0.05-0.399C541.45 556.5 541.3 556.5 541.1 556.55z
	M542.55 558.85l-0.5-0.05l-0.55-0.2l-0.95-0.649 l-0.85-0.9l-0.25-0.5L539.3 556
	M541.1 553.85l1.051 0.301l0.449 0.199l1.051 0.95l0.6 0.95l0.15 0.5
	M532.85 555.55l-0.25-0.25
	M533.7 569.25l-0.5-0.85l-0.75-0.95l-1.101-0.65l-0.949-0.3
	M531.25 568.85c0.2 0.2 0.4 0.1 0.55-0.05 c0.134-0.133 0.101-0.283-0.1-0.45c-0.167-0.166-0.316-0.183-0.45-0.05C531.083 568.5 531.1 568.7 531.2 568.85z
	M532.95 566.85l-0.25 0.051l0.05 0.25H533L532.95 566.85z
	M533.25 567.35l0.05 0.25h0.15l0.05-0.3L533.25 567.35z
	M532.4 566.4 l-0.25 0.05l0.1 0.2h0.2L532.4 566.4z
	M539.95 558.35v0.301l0.3-0.051l-0.05-0.3L539.95 558.35z
	M539.7 558.1V557.9h-0.3l0.05 0.3 L539.7 558.1z
	M540.7 559l0.05-0.2l-0.25 0.05v0.25L540.7 559z
	M541.8 574.85h0.3l-0.05-0.3l-0.25 0.05V574.85z
	M542.25 575 l0.05 0.25h0.3l-0.1-0.35L542.25 575.05z
	M541.3 574.35h0.2v-0.25l-0.25 0.051L541.3 574.35z
	M539.9 574.3l0.6 0.25l1 0.601l0.85 1 l0.45 0.8
	M540.35 576.55c0.2 0.2 0.4 0.1 0.551-0.05c0.1-0.1 0.066-0.233-0.101-0.4c-0.2-0.166-0.366-0.199-0.5-0.1 C540.134 576.2 540.1 576.4 540.4 576.55z
	M540.85 579.25l-1.5-0.6l-0.949-0.801l-0.601-1.05
	M528.5 568.7l0.8 1.4 l0.95 0.851l1.55 0.6
	M558.5 573.85l-0.25 0.051v0.25l0.25-0.051
	M557.85 573.55c-0.199-0.166-0.383-0.149-0.55 0.1 c-0.133 0.167-0.1 0.3 0.1 0.5c0.166 0.2 0.3 0.2 0.4 0C558.017 573.9 558 573.7 557.9 573.55z
	M557.3 573.6 l-1.05-0.899c-0.366-0.334-0.7-0.334-1 0l-2.45 2.95c0.101-0.101 0.25-0.067 0.5 0.1c0.167 0.1 0.2 0.3 0.1 0.4 c-0.14 0.14-0.273 0.156-0.399 0.05l0.95 0.85c0.366 0.3 0.7 0.4 1 0.05l2.5-3
	M549.2 575.35l-64.601-54.8l1.75-2.149 l64.551 54.85L549.2 575.35z
	M555.35 570.8l-4.1 4.8l0.4 0.301l4.1-4.801
	M548.9 581.025c0.121 0.1 0.3 0.1 0.399-0.075 c0.101-0.167 0.066-0.316-0.1-0.45c-0.2-0.134-0.367-0.15-0.5-0.05h0.05c-0.167 0.2-0.15 0.4 0.1 0.55h0.075L548.9 581 l0.949 0.824c0.367 0.3 0.7 0.3 0.9 0l2.45-2.949c-0.2-0.134-0.2-0.317 0-0.551l-1.1-0.85c-0.367-0.3-0.667-0.3-0.9 0 l-2.55 3
	M547.2 580.4l4.05-4.801
	M551.65 575.9l-4.051 4.8
	M553.25 578.9c0.233 0.2 0.4 0.1 0.6-0.051 c0.167-0.166 0.15-0.333-0.05-0.5c-0.2-0.166-0.383-0.166-0.55 0
	M552.8 575.65c-0.166 0.199-0.149 0.4 0.1 0.55h0.101
	M554.5 578.85l-0.35 0.051l0.1-0.2l0.2-0.15
	M557.7 565.25l-5.601 6.65l-18.149-15.45
	M542.4 583.35L524.2 568l5.7-6.75
	M496.4 560.35l13.25-16.3l-13.7 16.2
	M521 545.45l-4.85-4.05
	M530.45 553.55L525.6 549.4
	M493.9 542.725l-7.45 9.2
	M647.5 520.05l-22.9-19.399l-2.449 2.949l22.899 19.4
	M650 517.1L627.1 497.7l-2.5 3
	M622.15 503.6l-2.5 2.9
	M586.5 542.8 l8.15-9.6
	M576.7 571.65l-1.101 1.3
	M576.7 571.65l-9.601-8.15l-1.1 1.3
	M634.25 567.4l0.7 0.55l0.55 0.5
	M634.7 566.85l1.25 1.1 l16.35-19.25
	M613.5 592.4l-0.5 0.55l0.7 0.6l0.55 0.5l0.5-0.55l-0.6-0.5L613.5 592.4l6.6-7.75
	M619.35 583.4l1 0.949l0.101-0.149 l1.25 1.05l1.3 1.1
	M620.35 584.35l-0.25 0.301l0.65 0.6l0.55 0.5l0.4-0.5
	M614.75 593.5l6.55-7.75
	M620.75 585.25l-6.6 7.8
	M632.35 572.15l-1.25-1.101
	M631.55 570.5l0.7 0.6l2.7-3.149
	M632.25 571.1l0.55 0.5
	M629.65 494.8l-2.551 2.9
	M337.1 583.2 l0.25 1.55l0.3-0.05H338l-0.1-0.75l-0.05-0.851L337.1 583.2l-0.2-1.601
	M353.2 648.55l-0.2-1.75l-22.4 2.5l-6.8-61.75l13.9-1.5 l-0.05-1.35
	M350.85 580l0.15 1.65l0.25 1.55l-0.15 1.45l9.7-1.101l6.75 61.7l-1.9 0.2l0.05 1.7
	M351 581.65l-0.6 0.1v0.75v0.8 l0.85-0.1
	M350.4 581.75l-12.55 1.4
	M350.4 583.3l-12.4 1.4
	M350.4 582.5l-12.5 1.4
	M351.1 584.65l-13.4 1.4
	M392.55 644.4 l-0.2-1.8l-21.9 2.3l-6.7-61.6l10.15-1.1l-0.15-1.4l-0.25 0.1l-0.2-1.6l-0.1-1.6
	M373.75 580.75h0.4l-0.05-0.8l-0.05-0.8l-0.75 0.1
	M387.05 576.15l0.1 1.55l0.3 1.6l-0.15 1.4l12.8-1.351l6.75 61.65l-1.95 0.2l0.15 1.8
	M387.15 577.7l-0.65 0.05l0.15 0.9 l0.1 0.699l0.7-0.05
	M386.5 577.75l-12.45 1.4
	M386.65 578.65l-12.55 1.3
	M386.75 579.35l-12.6 1.4
	M373.9 582.15l13.4-1.45
	M445.55 527.1L461.6 540.7l2.45-2.95l-16-13.65
	M461.6 540.7l-2.5 2.899l-2.55 3l-2.149 2.551l1.1 0.949l-0.45 0.5l1.601 1.3 l0.449-0.5l0.75 0.6l80.551 67.85L532 627.4l-71.4 7.699l0.2 1.8
	M485.7 527.35l-1.351 0.101l-0.699 0.25l-1.851 1.5l-1.1 1.9 l-0.05 1.7
	M476.6 523.1l-2.6 2.95l-2.5 2.9l-2.4 2.95l-2.55 2.899l-2.5 3
	M466.55 534.8l-16-13.6
	M469.1 531.9L453 518.2
	M474 526.05L458 512.4
	M471.5 528.95l-16-13.601
	M405.55 574.15L436 570.85l1.2-1.449l0.55-0.551l-8.55-7.199 c2.233-2.634 5.066-4.134 8.5-4.5c3.066-0.233 5.8 0.5 8.1 2.199l0.05-0.05c-2-2.133-3.117-4.717-3.35-7.75 c-0.3-3.399 0.667-6.45 2.9-9.149l8.55 7.25l0.45-0.5
	M448.25 638.15L448 636.55l-2.05 0.101l-6.75-62.601l1.45-1.7l-0.75-0.649 l0.5-0.601l-1.55-1.3l-0.55 0.55l-1.1-0.949l-0.75 1.449H436
	M438.85 569.8l-1.1-0.95
	M455.05 550.6l-1.1-0.949l-8.1 9.6 c0.267 0.2 0.5 0.4 0.8 0.601c-0.233-0.2-0.5-0.384-0.8-0.551l-8.05 9.5
	M440.65 572.35l17.2-20.35
	M459.1 543.6L443 530
	M456.55 546.6l-16-13.649
	M411.25 642.2l-0.35-1.7l-1.45 0.2l-6.75-61.65l34.85-3.75l6.75 61.65l-20.8 2.25l0.2 1.7
	M460.6 635.1 c-0.433-3.466-1.966-6.283-4.6-8.449c-2.767-2.167-5.884-3.067-9.35-2.7l1.35 12.6L460.6 635.1z
	M423.5 639.2 c-0.367-3.5-1.883-6.351-4.55-8.55c-2.767-2.134-5.867-3.034-9.3-2.7l1.25 12.55L423.5 639.2z
	M392.35 642.5 c-0.367-3.467 0.55-6.566 2.75-9.3c2.133-2.667 4.933-4.2 8.4-4.6l1.4 12.55L392.35 642.55z
	M353 646.8 c-0.4-3.434 0.483-6.517 2.65-9.25c2.233-2.733 5.05-4.3 8.45-4.7l1.55 12.6
	M353 646.8l12.65-1.35
	M365.2 760.85l158.95-17.25 l0.199 2.301l-159 17.199L365.2 760.85z
	M613.7 593.55l-6.601 7.75l0.551 0.5l6.6-7.75
	M601.95 606.05l0.649 0.55l0.601 0.5 l0.399-0.449l-1.199-1.101l-0.101 0.2L601.95 606.05z
	M607.1 601.3l-0.699-0.55l-0.351 0.5l1.2 1l0.4-0.45
	M601.2 604.8l1.1 0.9
	M605.15 600.1l0.899 1.1
	M594.9 614.4l0.699 0.55l0.551 0.5l0.5-0.55l-0.601-0.5L595.4 613.8L594.9 614.4z
	M603.6 606.65l1.301 1
	M596.65 614.9l6.55-7.801
	M602.6 606.6l-6.55 7.8
	M595.4 613.8l6.55-7.75
	M583.1 626.2l1 0.899l0.15-0.199l1.25 1l1.3 1.1
	M584.1 627.1l-0.3 0.351l0.7 0.5l0.55 0.5l0.45-0.55
	M568.95 642.9l0.85 1.05l0.4-0.5l6.55-7.7l0.55-0.6l6.5-7.7
	M576.75 635.8 l0.7 0.5l0.55 0.5l0.55-0.6l-0.55-0.5l-0.7-0.5
	M578.55 636.15l6.5-7.7
	M578 635.65l6.5-7.7
	M589.15 623.7l0.449-0.55l-0.6-0.5 l-0.65-0.551l-0.449 0.551L589.15 623.7z
	M590.4 624.75l-1.25-1.05
	M589 622.65l6.6-7.7
	M589.6 623.15l6.551-7.7
	M588.35 622.1 l6.551-7.699
	M587.9 622.65l-0.851-1.15
	M569.8 643.95l1.25 1.05l0.4-0.5l-0.55-0.55l-0.7-0.5
	M572.3 646l-1.25-1
	M608.55 603.3 l-1.3-1.05
	M570.9 643.95l6.55-7.7
	M571.45 644.5l6.55-7.75
	M552.7 599.95l-1.15 1.35l1.45 1.25l-13.5 15.95l-63.95-54.25
	M551.55 601.3l-8.2 9.65c-2.633-2.267-4.116-5.134-4.449-8.601c-0.233-3.433 0.783-6.483 3.05-9.149
	M554.4 678.3l-0.4-3.25 l-25 2.65l0.35 3.4
	M565.25 678.25l-0.15-0.7l-0.649 0.05l0.8 6.95l0.6-0.05l-0.25-3.1
	M565.1 677.55v-0.75l-1.449 0.5
	M563.65 677.65l0.8-0.051
	M566 684.5h-0.15l0.15 0.7V685.1
	M566 685.2l0.075 0.575L566 685.1
	M566 685.2l-1.4 0.1
	M565.25 684.55l-0.8 0.1
	M568.85 710.9l-0.8 0.05L568.9 718l0.75-0.15
	M568.05 710.95l-0.85 0.2
	M567.2 710.4l1.55-0.15 l-2.675-24.475
	M568.05 718.1l0.851-0.1
	M572.25 718.35l-2.6 0.25l-0.051-0.05l-1.55 0.2
	M572.7 760.6l0.649-0.1l0.851-0.15V759.7 l-1.7 0.2
	M574.25 760.3l-0.05 0.05l0.1 0.6
	M576.15 793.3l1.649-0.25l-2.7-25l-1.6 0.1
	M574.9 767.4l-0.851 0.05l-0.6 0.1
	M574.05 767.45l-0.7-6.95
	M606.4 600.75l6.6-7.8
	M551.55 601.3l-9.6-8.1
	M553.55 349.65l89.15 75.75l-13.9-69.85
	M578.65 801.4 l0.05 0.051l2.575-0.226
	M578.6 800.8h-0.75L577 800.9
	M577.85 800.8l-0.8-6.85l-0.8 0.1
	M577.85 793.85l-0.8 0.1
	M578.65 801.35l-1.551 0.1
	M571 828.45l-0.75 0.1l-0.75 0.1
	M571 828.45l-0.15-1.5
	M570.15 827l0.1 0.8v0.75
	M546.25 829.6 l0.2 0.8l-0.05 0.8
	M538.2 830.5l-0.05 0.8l8.3-0.85
	M537.45 830.55l0.149 1.6
	M538.15 831.3l0.1 0.9
	M561.2 828l0.2 0.8v0.75
	M561.9 827.85l0.05 0.851l8.3-0.9
	M561.4 828.8L547.05 830.4l0.2 0.6
	M547.05 829.6v0.801
	M561.95 828.7l0.25 0.8
	M496.1 836.6 l-0.75 0.075v0.025
	M494.35 835.3l0.2 0.75l0.05 0.7l0.75-0.075l-0.1-0.774l-0.25-0.65
	M503.55 834.25H504l0.25 1.5
	M503.5 835.9 l-0.1-0.75l-8.15 0.8
	M503.4 835.1l-0.101-0.85
	M471.3 837.8l0.05 0.8l8.2-1l-0.1-0.649
	M471.35 838.6l0.101 0.8
	M470.75 839.4 l-0.1-1.551h0.25
	M494.55 836.05l-14.3 1.55l0.05 0.8
	M480.1 836.9l0.15 0.7
	M479.6 838.4l-0.05-0.801
	M436.8 841.45h0.3 l0.25 1.5
	M436.5 841.55v0.75l0.05 0.8
	M428.5 843.9l-0.2-0.65l-0.1-0.85
	M427.5 842.45l0.25 0.85l-0.05 0.7
	M436.5 842.3 l-8.2 0.9
	M412.55 844.15l0.2 0.75l0.05 0.75l0.75-0.051l-0.1-0.75l-0.1-0.75
	M412 845.75l0.8-0.1
	M413.45 844.85l14.3-1.55
	M359.85 849.85l0.2 1.5l1.55-0.199l-0.15-0.75l-0.1-0.7
	M356.55 851.8l3.45-0.35l0.05-0.101L356.55 851.8z
	M345.8 851.4 l0.05 0.801v0.899
	M347.3 851.15l0.25 1.649l9-1
	M337.55 852.2l0.15 0.899l8.15-0.949
	M337.7 853.1l0.1 0.8
	M337.15 852.3h-0.3 l0.2 1.6
	M412.75 844.9l-8.25 0.899l0.05 0.8
	M404.4 844.95l0.1 0.8
	M403.9 846.65l-0.15-1.601H404
	M369.9 848.8l0.45-0.05 l0.15 1.5
	M369.75 850.35v-0.75l-8.3 0.8
	M369.75 849.6l-0.05-0.85
	M361.6 851.15l3.7-0.351
	M244.25 882.5l-0.8 0.05l0.15 0.8 v0.75h0.75l-0.1-0.8V882.5l13.85-1.55
	M258.2 881.7v0.85l0.75-0.1l-0.2-0.8v-0.7h-0.65L258.2 881.7l-13.95 1.6
	M258.2 882.5 l-13.85 1.5
	M258.75 880.95l14-1.65l0.3 0.05l-0.25-1.5
	M272.75 879.3l0.1 0.8l0.05 0.851l0.65-0.05l-0.1-1.65l-0.4 0.1
	M273.8 882.3l-0.25-1.399
	M272.85 880.1l-14.1 1.6
	M272.9 880.95l-13.95 1.5
	M225.8 792.4l0.05 0.149l0.15 0.05l0.05-0.25 L225.8 792.4z
	M225.45 792.5l0.05-0.1h-0.15l-0.05 0.199L225.45 792.5z
	M225.05 792.7l-0.1-0.25l-0.1 0.05l-0.1 0.2H225.05z
	M224.55 792.7l-0.05-0.15l-0.2-0.05l0.15 0.15L224.55 792.7z
	M223.8 792.65v0.1l0.3 0.05l-0.15-0.2L223.8 792.65z
	M218.3 793.4 v-0.199l-0.15 0.05l0.1 0.149H218.3z
	M217.8 793.3l-0.2-0.05l0.05 0.2h0.15V793.3z
	M217.1 793.4l0.1 0.1h0.05l0.1-0.2L217.1 793.4z
	M216.65 793.4l0.05 0.149l0.15 0.05v-0.3L216.65 793.4z
	M216.2 793.4v0.3l0.2-0.15V793.4H216.2z
	M210.2 794.1l-0.2-0.05 l-0.05 0.25l0.25-0.149V794.1z
	M210.5 794.25h0.15l0.05-0.25l-0.25 0.05L210.5 794.25z
	M209.6 792.6h-0.3 c-0.1 0.134-0.117 0.25-0.05 0.351c0.167 0.1 0.3 0.1 0.4-0.05C209.75 792.8 209.7 792.7 209.6 792.6z
	M208.55 794.2 l-0.05 0.15l0.2 0.05v-0.25L208.55 794.25z
	M209.65 794.2l-0.1-0.05l0.05 0.199l0.1-0.1L209.65 794.2z
	M209.1 794.2l-0.05 0.1 h0.2l-0.1-0.149H209.1z
	M237.2 851.5l1.55 13.95l0.65-0.05l-1.55-13.95L237.2 851.5l-0.75 0.1
	M243.6 884.05l-3.55 0.45l-0.4-3.7 l-0.1-0.7l-1.5-13.8l-0.2-0.8l-1.4-13.95l-0.1-0.6
	M237.85 850.75v0.7
	M239.4 865.4l0.2 0.649l1.5 13.95l-0.05 0.7l0.3 2.1 l2.1-0.3
	M237.85 865.5l0.9-0.05
	M238.05 866.3l0.65-0.05l0.9-0.2
	M239.65 880.8l0.8-0.05l0.6-0.05
	M241.1 880h-0.8l-0.75 0.1
	M240.45 880.75l0.2 2.9l2.95-0.351
	M240.3 880l-1.6-13.75
	M613.55 279l89.15 75.7l-60 70.7
	M631.5 352.3l71.2 2.4
	M653.6 463.7 l-5.649 6.6" class="style1"/>	
		</g>
		
	<g id="Text">
		<rect x="725.5" y="329.9" width="67" height="44.5" class="style2 roomText"/>
	</g> 
</svg>
